<svg viewBox="0 0 515 136" fill="white" xmlns="http://www.w3.org/2000/svg">
<path d="M0 0H18.8004L24.1205 118.8H34.2907L39.6008 0H58.4011L50.801 136H7.60015L0 0Z"/><path d="M69.6013 0H118.001V17.4H88.4014V59.6H113.201V76.2H88.4014V118.6H118.001V136H69.6013V0Z"/><path d="M129.393 0H151.793L172.453 100.25L172.593 0H188.394V136H165.393L145.193 38.92V136H129.393V0Z"/><path d="M201.594 0H238.395C242.925 0 246.625 0.73 249.495 2.2C252.365 3.67 254.565 6.03 256.095 9.3C257.625 12.57 258.395 16.87 258.395 22.2V113.8C258.395 119.13 257.625 123.43 256.095 126.7C254.565 129.97 252.365 132.33 249.495 133.8C246.625 135.27 242.925 136 238.395 136H201.594V0ZM236.905 118C237.775 117.6 238.435 116.9 238.905 115.9C239.365 114.9 239.605 113.47 239.605 111.6V24.4C239.605 22.53 239.375 21.1 238.905 20.1C238.435 19.1 237.775 18.4 236.905 18C236.035 17.6 234.735 17.4 233.005 17.4H220.404V118.6H233.005C234.735 118.6 236.035 118.4 236.905 118Z"/><path d="M308.196 136H326.796L319.196 0H275.995L268.395 136H287.196L289.046 96.2H306.286L308.196 136ZM289.856 79L292.726 17.2H302.486L305.456 79H289.846H289.856Z"/><path d="M333.396 0H352.197L357.517 118.8H367.697L372.997 0H391.798L384.197 136H340.997L333.396 0Z"/><path d="M438.199 136H456.799L449.199 0H405.998L398.398 136H417.198L419.048 96.2H436.288L438.199 136ZM419.858 79L422.728 17.2H432.488L435.458 79H419.848H419.858Z"/><path d="M467.999 0H486.799V118.6H514.999V136H467.999V0Z"/>
</svg>
