<svg xmlns="http://www.w3.org/2000/svg" viewBox="0 0 340 505" preserveAspectRatio="none">
  <polygon points="22.34 493.48 15.71 493.48 12.25 416.1 0 416.1 4.95 504.69 33.09 504.69 38.04 416.1 25.79 416.1 22.34 493.48" fill="#801d65" stroke-width="0"/>
  <polygon points="22.78 493.38 16.09 493.38 12.6 415.29 .24 415.29 5.24 504.69 33.63 504.69 38.63 415.29 26.27 415.29 22.78 493.38" fill="#801d65" stroke-width="0"/>
  <polygon points="23.22 493.28 16.48 493.28 12.95 414.48 .48 414.48 5.52 504.69 34.17 504.69 39.21 414.48 26.75 414.48 23.22 493.28" fill="#801d65" stroke-width="0"/>
  <polygon points="23.67 493.18 16.86 493.18 13.3 413.68 .72 413.68 5.81 504.69 34.72 504.69 39.8 413.68 27.22 413.68 23.67 493.18" fill="#811e65" stroke-width="0"/>
  <polygon points="24.11 493.07 17.24 493.07 13.65 412.87 .96 412.87 6.09 504.69 35.26 504.69 40.39 412.87 27.7 412.87 24.11 493.07" fill="#811e65" stroke-width="0"/>
  <polygon points="24.56 492.97 17.63 492.97 14.01 412.06 1.2 412.06 6.38 504.69 35.8 504.69 40.98 412.06 28.17 412.06 24.56 492.97" fill="#811e64" stroke-width="0"/>
  <polygon points="25 492.87 18.01 492.87 14.36 411.25 1.44 411.25 6.66 504.69 36.34 504.69 41.56 411.25 28.65 411.25 25 492.87" fill="#811e64" stroke-width="0"/>
  <polygon points="25.44 492.77 18.39 492.77 14.71 410.44 1.68 410.44 6.95 504.69 36.89 504.69 42.15 410.44 29.12 410.44 25.44 492.77" fill="#811f64" stroke-width="0"/>
  <polygon points="25.89 492.67 18.78 492.67 15.06 409.63 1.92 409.63 7.23 504.69 37.43 504.69 42.74 409.63 29.6 409.63 25.89 492.67" fill="#821f64" stroke-width="0"/>
  <polygon points="26.33 492.56 19.16 492.56 15.41 408.82 2.16 408.82 7.52 504.69 37.97 504.69 43.33 408.82 30.07 408.82 26.33 492.56" fill="#821f64" stroke-width="0"/>
  <polygon points="26.78 492.46 19.54 492.46 15.76 408.01 2.4 408.01 7.8 504.69 38.51 504.69 43.91 408.01 30.55 408.01 26.78 492.46" fill="#821f63" stroke-width="0"/>
  <polygon points="27.22 492.36 19.93 492.36 16.12 407.2 2.64 407.2 8.09 504.69 39.05 504.69 44.5 407.2 31.03 407.2 27.22 492.36" fill="#822063" stroke-width="0"/>
  <polygon points="27.66 492.26 20.31 492.26 16.47 406.39 2.88 406.39 8.37 504.69 39.6 504.69 45.09 406.39 31.5 406.39 27.66 492.26" fill="#832063" stroke-width="0"/>
  <polygon points="28.11 492.15 20.69 492.15 16.82 405.58 3.12 405.58 8.66 504.69 40.14 504.69 45.68 405.58 31.98 405.58 28.11 492.15" fill="#832063" stroke-width="0"/>
  <polygon points="28.55 492.05 21.08 492.05 17.17 404.77 3.36 404.77 8.94 504.69 40.68 504.69 46.26 404.77 32.45 404.77 28.55 492.05" fill="#832063" stroke-width="0"/>
  <polygon points="29 491.95 21.46 491.95 17.52 403.96 3.6 403.96 9.23 504.69 41.22 504.69 46.85 403.96 32.93 403.96 29 491.95" fill="#832162" stroke-width="0"/>
  <polygon points="29.44 491.85 21.84 491.85 17.87 403.15 3.84 403.15 9.51 504.69 41.77 504.69 47.44 403.15 33.4 403.15 29.44 491.85" fill="#832162" stroke-width="0"/>
  <polygon points="29.88 491.74 22.23 491.74 18.23 402.34 4.08 402.34 9.8 504.69 42.31 504.69 48.03 402.34 33.88 402.34 29.88 491.74" fill="#842162" stroke-width="0"/>
  <polygon points="30.33 491.64 22.61 491.64 18.58 401.53 4.32 401.53 10.08 504.69 42.85 504.69 48.61 401.53 34.35 401.53 30.33 491.64" fill="#842162" stroke-width="0"/>
  <polygon points="30.77 491.54 22.99 491.54 18.93 400.72 4.56 400.72 10.37 504.69 43.39 504.69 49.2 400.72 34.83 400.72 30.77 491.54" fill="#842262" stroke-width="0"/>
  <polygon points="31.22 491.44 23.38 491.44 19.28 399.91 4.8 399.91 10.65 504.69 43.93 504.69 49.79 399.91 35.31 399.91 31.22 491.44" fill="#842261" stroke-width="0"/>
  <polygon points="31.66 491.33 23.76 491.33 19.63 399.1 5.04 399.1 10.94 504.69 44.48 504.69 50.38 399.1 35.78 399.1 31.66 491.33" fill="#852261" stroke-width="0"/>
  <polygon points="32.1 491.23 24.14 491.23 19.99 398.29 5.28 398.29 11.22 504.69 45.02 504.69 50.96 398.29 36.26 398.29 32.1 491.23" fill="#852261" stroke-width="0"/>
  <polygon points="32.55 491.13 24.53 491.13 20.34 397.48 5.52 397.48 11.51 504.69 45.56 504.69 51.55 397.48 36.73 397.48 32.55 491.13" fill="#852361" stroke-width="0"/>
  <polygon points="32.99 491.03 24.91 491.03 20.69 396.67 5.76 396.67 11.79 504.69 46.1 504.69 52.14 396.67 37.21 396.67 32.99 491.03" fill="#852361" stroke-width="0"/>
  <polygon points="33.44 490.92 25.29 490.92 21.04 395.87 6 395.87 12.08 504.69 46.65 504.69 52.73 395.87 37.68 395.87 33.44 490.92" fill="#862361" stroke-width="0"/>
  <polygon points="33.88 490.82 25.68 490.82 21.39 395.06 6.24 395.06 12.36 504.69 47.19 504.69 53.31 395.06 38.16 395.06 33.88 490.82" fill="#862360" stroke-width="0"/>
  <polygon points="34.32 490.72 26.06 490.72 21.74 394.25 6.48 394.25 12.65 504.69 47.73 504.69 53.9 394.25 38.63 394.25 34.32 490.72" fill="#862460" stroke-width="0"/>
  <polygon points="34.77 490.62 26.44 490.62 22.1 393.44 6.72 393.44 12.93 504.69 48.27 504.69 54.49 393.44 39.11 393.44 34.77 490.62" fill="#862460" stroke-width="0"/>
  <polygon points="35.21 490.52 26.83 490.52 22.45 392.63 6.96 392.63 13.22 504.69 48.81 504.69 55.08 392.63 39.59 392.63 35.21 490.52" fill="#862460" stroke-width="0"/>
  <polygon points="35.66 490.41 27.21 490.41 22.8 391.82 7.2 391.82 13.5 504.69 49.36 504.69 55.66 391.82 40.06 391.82 35.66 490.41" fill="#872460" stroke-width="0"/>
  <polygon points="36.1 490.31 27.6 490.31 23.15 391.01 7.44 391.01 13.79 504.69 49.9 504.69 56.25 391.01 40.54 391.01 36.1 490.31" fill="#87255f" stroke-width="0"/>
  <polygon points="36.54 490.21 27.98 490.21 23.5 390.2 7.68 390.2 14.07 504.69 50.44 504.69 56.84 390.2 41.01 390.2 36.54 490.21" fill="#87255f" stroke-width="0"/>
  <polygon points="36.99 490.11 28.36 490.11 23.85 389.39 7.92 389.39 14.36 504.69 50.98 504.69 57.43 389.39 41.49 389.39 36.99 490.11" fill="#87255f" stroke-width="0"/>
  <polygon points="37.43 490 28.75 490 24.21 388.58 8.15 388.58 14.64 504.69 51.53 504.69 58.01 388.58 41.96 388.58 37.43 490" fill="#88255f" stroke-width="0"/>
  <polygon points="37.88 489.9 29.13 489.9 24.56 387.77 8.39 387.77 14.93 504.69 52.07 504.69 58.6 387.77 42.44 387.77 37.88 489.9" fill="#88265f" stroke-width="0"/>
  <polygon points="38.32 489.8 29.51 489.8 24.91 386.96 8.63 386.96 15.21 504.69 52.61 504.69 59.19 386.96 42.91 386.96 38.32 489.8" fill="#88265e" stroke-width="0"/>
  <polygon points="38.76 489.7 29.9 489.7 25.26 386.15 8.87 386.15 15.5 504.69 53.15 504.69 59.78 386.15 43.39 386.15 38.76 489.7" fill="#88265e" stroke-width="0"/>
  <polygon points="39.21 489.59 30.28 489.59 25.61 385.34 9.11 385.34 15.78 504.69 53.69 504.69 60.36 385.34 43.87 385.34 39.21 489.59" fill="#89275e" stroke-width="0"/>
  <polygon points="39.65 489.49 30.66 489.49 25.97 384.53 9.35 384.53 16.07 504.69 54.24 504.69 60.95 384.53 44.34 384.53 39.65 489.49" fill="#89275e" stroke-width="0"/>
  <polygon points="40.1 489.39 31.05 489.39 26.32 383.72 9.59 383.72 16.35 504.69 54.78 504.69 61.54 383.72 44.82 383.72 40.1 489.39" fill="#89275e" stroke-width="0"/>
  <polygon points="40.54 489.29 31.43 489.29 26.67 382.91 9.83 382.91 16.64 504.69 55.32 504.69 62.12 382.91 45.29 382.91 40.54 489.29" fill="#89275d" stroke-width="0"/>
  <polygon points="40.98 489.18 31.81 489.18 27.02 382.1 10.07 382.1 16.92 504.69 55.86 504.69 62.71 382.1 45.77 382.1 40.98 489.18" fill="#89285d" stroke-width="0"/>
  <polygon points="41.43 489.08 32.2 489.08 27.37 381.29 10.31 381.29 17.21 504.69 56.41 504.69 63.3 381.29 46.24 381.29 41.43 489.08" fill="#8a285d" stroke-width="0"/>
  <polygon points="41.87 488.98 32.58 488.98 27.72 380.48 10.55 380.48 17.5 504.69 56.95 504.69 63.89 380.48 46.72 380.48 41.87 488.98" fill="#8a285d" stroke-width="0"/>
  <polygon points="42.32 488.88 32.96 488.88 28.08 379.67 10.79 379.67 17.78 504.69 57.49 504.69 64.47 379.67 47.19 379.67 42.32 488.88" fill="#8a285d" stroke-width="0"/>
  <polygon points="42.76 488.77 33.35 488.77 28.43 378.86 11.03 378.86 18.07 504.69 58.03 504.69 65.06 378.86 47.67 378.86 42.76 488.77" fill="#8a295d" stroke-width="0"/>
  <polygon points="43.2 488.67 33.73 488.67 28.78 378.06 11.27 378.06 18.35 504.69 58.58 504.69 65.65 378.06 48.15 378.06 43.2 488.67" fill="#8b295c" stroke-width="0"/>
  <polygon points="43.65 488.57 34.11 488.57 29.13 377.25 11.51 377.25 18.64 504.69 59.12 504.69 66.24 377.25 48.62 377.25 43.65 488.57" fill="#8b295c" stroke-width="0"/>
  <polygon points="44.09 488.47 34.5 488.47 29.48 376.44 11.75 376.44 18.92 504.69 59.66 504.69 66.82 376.44 49.1 376.44 44.09 488.47" fill="#8b295c" stroke-width="0"/>
  <polygon points="44.54 488.37 34.88 488.37 29.83 375.63 11.99 375.63 19.21 504.69 60.2 504.69 67.41 375.63 49.57 375.63 44.54 488.37" fill="#8b2a5c" stroke-width="0"/>
  <polygon points="44.98 488.26 35.26 488.26 30.19 374.82 12.23 374.82 19.49 504.69 60.74 504.69 68 374.82 50.05 374.82 44.98 488.26" fill="#8b2a5c" stroke-width="0"/>
  <polygon points="45.42 488.16 35.65 488.16 30.54 374.01 12.47 374.01 19.78 504.69 61.29 504.69 68.59 374.01 50.52 374.01 45.42 488.16" fill="#8c2a5b" stroke-width="0"/>
  <polygon points="45.87 488.06 36.03 488.06 30.89 373.2 12.71 373.2 20.06 504.69 61.83 504.69 69.17 373.2 51 373.2 45.87 488.06" fill="#8c2a5b" stroke-width="0"/>
  <polygon points="46.31 487.96 36.41 487.96 31.24 372.39 12.95 372.39 20.35 504.69 62.37 504.69 69.76 372.39 51.48 372.39 46.31 487.96" fill="#8c2b5b" stroke-width="0"/>
  <polygon points="46.76 487.85 36.8 487.85 31.59 371.58 13.19 371.58 20.63 504.69 62.91 504.69 70.35 371.58 51.95 371.58 46.76 487.85" fill="#8c2b5b" stroke-width="0"/>
  <polygon points="47.2 487.75 37.18 487.75 31.95 370.77 13.43 370.77 20.92 504.69 63.46 504.69 70.94 370.77 52.43 370.77 47.2 487.75" fill="#8d2b5b" stroke-width="0"/>
  <polygon points="47.64 487.65 37.56 487.65 32.3 369.96 13.67 369.96 21.2 504.69 64 504.69 71.52 369.96 52.9 369.96 47.64 487.65" fill="#8d2b5a" stroke-width="0"/>
  <polygon points="48.09 487.55 37.95 487.55 32.65 369.15 13.91 369.15 21.49 504.69 64.54 504.69 72.11 369.15 53.38 369.15 48.09 487.55" fill="#8d2c5a" stroke-width="0"/>
  <polygon points="48.53 487.44 38.33 487.44 33 368.34 14.15 368.34 21.77 504.69 65.08 504.69 72.7 368.34 53.85 368.34 48.53 487.44" fill="#8d2c5a" stroke-width="0"/>
  <polygon points="48.98 487.34 38.71 487.34 33.35 367.53 14.39 367.53 22.06 504.69 65.62 504.69 73.29 367.53 54.33 367.53 48.98 487.34" fill="#8e2c5a" stroke-width="0"/>
  <polygon points="49.42 487.24 39.1 487.24 33.7 366.72 14.63 366.72 22.34 504.69 66.17 504.69 73.87 366.72 54.8 366.72 49.42 487.24" fill="#8e2c5a" stroke-width="0"/>
  <polygon points="49.86 487.14 39.48 487.14 34.06 365.91 14.87 365.91 22.63 504.69 66.71 504.69 74.46 365.91 55.28 365.91 49.86 487.14" fill="#8e2d59" stroke-width="0"/>
  <polygon points="50.31 487.03 39.86 487.03 34.41 365.1 15.11 365.1 22.91 504.69 67.25 504.69 75.05 365.1 55.76 365.1 50.31 487.03" fill="#8e2d59" stroke-width="0"/>
  <polygon points="50.75 486.93 40.25 486.93 34.76 364.29 15.35 364.29 23.2 504.69 67.79 504.69 75.64 364.29 56.23 364.29 50.75 486.93" fill="#8e2d59" stroke-width="0"/>
  <polygon points="51.2 486.83 40.63 486.83 35.11 363.48 15.59 363.48 23.48 504.69 68.34 504.69 76.22 363.48 56.71 363.48 51.2 486.83" fill="#8f2d59" stroke-width="0"/>
  <polygon points="51.64 486.73 41.01 486.73 35.46 362.67 15.83 362.67 23.77 504.69 68.88 504.69 76.81 362.67 57.18 362.67 51.64 486.73" fill="#8f2e59" stroke-width="0"/>
  <polygon points="52.08 486.62 41.4 486.62 35.81 361.86 16.07 361.86 24.05 504.69 69.42 504.69 77.4 361.86 57.66 361.86 52.08 486.62" fill="#8f2e58" stroke-width="0"/>
  <polygon points="52.53 486.52 41.78 486.52 36.17 361.06 16.31 361.06 24.34 504.69 69.96 504.69 77.99 361.06 58.13 361.06 52.53 486.52" fill="#8f2e58" stroke-width="0"/>
  <polygon points="52.97 486.42 42.16 486.42 36.52 360.25 16.55 360.25 24.62 504.69 70.5 504.69 78.57 360.25 58.61 360.25 52.97 486.42" fill="#902e58" stroke-width="0"/>
  <polygon points="53.41 486.32 42.55 486.32 36.87 359.44 16.79 359.44 24.91 504.69 71.05 504.69 79.16 359.44 59.08 359.44 53.41 486.32" fill="#902f58" stroke-width="0"/>
  <polygon points="53.86 486.22 42.93 486.22 37.22 358.63 17.03 358.63 25.19 504.69 71.59 504.69 79.75 358.63 59.56 358.63 53.86 486.22" fill="#902f58" stroke-width="0"/>
  <polygon points="54.3 486.11 43.31 486.11 37.57 357.82 17.27 357.82 25.48 504.69 72.13 504.69 80.34 357.82 60.04 357.82 54.3 486.11" fill="#902f58" stroke-width="0"/>
  <polygon points="54.75 486.01 43.7 486.01 37.93 357.01 17.51 357.01 25.76 504.69 72.67 504.69 80.92 357.01 60.51 357.01 54.75 486.01" fill="#902f57" stroke-width="0"/>
  <polygon points="55.19 485.91 44.08 485.91 38.28 356.2 17.75 356.2 26.05 504.69 73.22 504.69 81.51 356.2 60.99 356.2 55.19 485.91" fill="#913057" stroke-width="0"/>
  <polygon points="55.63 485.81 44.47 485.81 38.63 355.39 17.99 355.39 26.33 504.69 73.76 504.69 82.1 355.39 61.46 355.39 55.63 485.81" fill="#913057" stroke-width="0"/>
  <polygon points="56.08 485.7 44.85 485.7 38.98 354.58 18.23 354.58 26.62 504.69 74.3 504.69 82.69 354.58 61.94 354.58 56.08 485.7" fill="#913057" stroke-width="0"/>
  <polygon points="56.52 485.6 45.23 485.6 39.33 353.77 18.47 353.77 26.9 504.69 74.84 504.69 83.27 353.77 62.41 353.77 56.52 485.6" fill="#913057" stroke-width="0"/>
  <polygon points="56.97 485.5 45.62 485.5 39.68 352.96 18.71 352.96 27.19 504.69 75.38 504.69 83.86 352.96 62.89 352.96 56.97 485.5" fill="#923156" stroke-width="0"/>
  <polygon points="57.41 485.4 46 485.4 40.04 352.15 18.95 352.15 27.47 504.69 75.93 504.69 84.45 352.15 63.36 352.15 57.41 485.4" fill="#923156" stroke-width="0"/>
  <polygon points="57.85 485.29 46.38 485.29 40.39 351.34 19.19 351.34 27.76 504.69 76.47 504.69 85.04 351.34 63.84 351.34 57.85 485.29" fill="#923156" stroke-width="0"/>
  <polygon points="58.3 485.19 46.77 485.19 40.74 350.53 19.43 350.53 28.04 504.69 77.01 504.69 85.62 350.53 64.32 350.53 58.3 485.19" fill="#923156" stroke-width="0"/>
  <polygon points="58.74 485.09 47.15 485.09 41.09 349.72 19.67 349.72 28.33 504.69 77.55 504.69 86.21 349.72 64.79 349.72 58.74 485.09" fill="#933256" stroke-width="0"/>
  <polygon points="59.19 484.99 47.53 484.99 41.44 348.91 19.91 348.91 28.61 504.69 78.1 504.69 86.8 348.91 65.27 348.91 59.19 484.99" fill="#933255" stroke-width="0"/>
  <polygon points="59.63 484.88 47.92 484.88 41.79 348.1 20.15 348.1 28.9 504.69 78.64 504.69 87.39 348.1 65.74 348.1 59.63 484.88" fill="#933255" stroke-width="0"/>
  <polygon points="60.07 484.78 48.3 484.78 42.15 347.29 20.39 347.29 29.18 504.69 79.18 504.69 87.97 347.29 66.22 347.29 60.07 484.78" fill="#933255" stroke-width="0"/>
  <polygon points="60.52 484.68 48.68 484.68 42.5 346.48 20.63 346.48 29.47 504.69 79.72 504.69 88.56 346.48 66.69 346.48 60.52 484.68" fill="#933355" stroke-width="0"/>
  <polygon points="60.96 484.58 49.07 484.58 42.85 345.67 20.87 345.67 29.75 504.69 80.26 504.69 89.15 345.67 67.17 345.67 60.96 484.58" fill="#943355" stroke-width="0"/>
  <polygon points="61.41 484.47 49.45 484.47 43.2 344.86 21.11 344.86 30.04 504.69 80.81 504.69 89.74 344.86 67.64 344.86 61.41 484.47" fill="#943354" stroke-width="0"/>
  <polygon points="61.85 484.37 49.83 484.37 43.55 344.05 21.35 344.05 30.32 504.69 81.35 504.69 90.32 344.05 68.12 344.05 61.85 484.37" fill="#943354" stroke-width="0"/>
  <polygon points="62.29 484.27 50.22 484.27 43.91 343.25 21.59 343.25 30.61 504.69 81.89 504.69 90.91 343.25 68.6 343.25 62.29 484.27" fill="#943454" stroke-width="0"/>
  <polygon points="62.74 484.17 50.6 484.17 44.26 342.44 21.83 342.44 30.89 504.69 82.43 504.69 91.5 342.44 69.07 342.44 62.74 484.17" fill="#953454" stroke-width="0"/>
  <polygon points="63.18 484.07 50.98 484.07 44.61 341.63 22.07 341.63 31.18 504.69 82.98 504.69 92.09 341.63 69.55 341.63 63.18 484.07" fill="#953454" stroke-width="0"/>
  <polygon points="63.63 483.96 51.37 483.96 44.96 340.82 22.31 340.82 31.46 504.69 83.52 504.69 92.67 340.82 70.02 340.82 63.63 483.96" fill="#953454" stroke-width="0"/>
  <polygon points="64.07 483.86 51.75 483.86 45.31 340.01 22.55 340.01 31.75 504.69 84.06 504.69 93.26 340.01 70.5 340.01 64.07 483.86" fill="#953553" stroke-width="0"/>
  <polygon points="64.51 483.76 52.13 483.76 45.66 339.2 22.79 339.2 32.03 504.69 84.6 504.69 93.85 339.2 70.97 339.2 64.51 483.76" fill="#963553" stroke-width="0"/>
  <polygon points="64.96 483.66 52.52 483.66 46.02 338.39 23.03 338.39 32.32 504.69 85.15 504.69 94.44 338.39 71.45 338.39 64.96 483.66" fill="#963553" stroke-width="0"/>
  <polygon points="65.4 483.55 52.9 483.55 46.37 337.58 23.27 337.58 32.61 504.69 85.69 504.69 95.02 337.58 71.92 337.58 65.4 483.55" fill="#963553" stroke-width="0"/>
  <polygon points="65.85 483.45 53.28 483.45 46.72 336.77 23.51 336.77 32.89 504.69 86.23 504.69 95.61 336.77 72.4 336.77 65.85 483.45" fill="#963653" stroke-width="0"/>
  <polygon points="66.29 483.35 53.67 483.35 47.07 335.96 23.75 335.96 33.18 504.69 86.77 504.69 96.2 335.96 72.88 335.96 66.29 483.35" fill="#963652" stroke-width="0"/>
  <polygon points="66.73 483.25 54.05 483.25 47.42 335.15 23.98 335.15 33.46 504.69 87.31 504.69 96.79 335.15 73.35 335.15 66.73 483.25" fill="#973652" stroke-width="0"/>
  <polygon points="67.18 483.14 54.43 483.14 47.77 334.34 24.22 334.34 33.75 504.69 87.86 504.69 97.37 334.34 73.83 334.34 67.18 483.14" fill="#973652" stroke-width="0"/>
  <polygon points="67.62 483.04 54.82 483.04 48.13 333.53 24.46 333.53 34.03 504.69 88.4 504.69 97.96 333.53 74.3 333.53 67.62 483.04" fill="#973752" stroke-width="0"/>
  <polygon points="68.07 482.94 55.2 482.94 48.48 332.72 24.7 332.72 34.32 504.69 88.94 504.69 98.55 332.72 74.78 332.72 68.07 482.94" fill="#973752" stroke-width="0"/>
  <polygon points="68.51 482.84 55.58 482.84 48.83 331.91 24.94 331.91 34.6 504.69 89.48 504.69 99.14 331.91 75.25 331.91 68.51 482.84" fill="#983751" stroke-width="0"/>
  <polygon points="68.95 482.73 55.97 482.73 49.18 331.1 25.18 331.1 34.89 504.69 90.03 504.69 99.72 331.1 75.73 331.1 68.95 482.73" fill="#983751" stroke-width="0"/>
  <polygon points="69.4 482.63 56.35 482.63 49.53 330.29 25.42 330.29 35.17 504.69 90.57 504.69 100.31 330.29 76.2 330.29 69.4 482.63" fill="#983851" stroke-width="0"/>
  <polygon points="69.84 482.53 56.73 482.53 49.89 329.48 25.66 329.48 35.46 504.69 91.11 504.69 100.9 329.48 76.68 329.48 69.84 482.53" fill="#983851" stroke-width="0"/>
  <polygon points="70.29 482.43 57.12 482.43 50.24 328.67 25.9 328.67 35.74 504.69 91.65 504.69 101.49 328.67 77.16 328.67 70.29 482.43" fill="#983851" stroke-width="0"/>
  <polygon points="70.73 482.32 57.5 482.32 50.59 327.86 26.14 327.86 36.03 504.69 92.19 504.69 102.07 327.86 77.63 327.86 70.73 482.32" fill="#993850" stroke-width="0"/>
  <polygon points="71.17 482.22 57.88 482.22 50.94 327.05 26.38 327.05 36.31 504.69 92.74 504.69 102.66 327.05 78.11 327.05 71.17 482.22" fill="#993950" stroke-width="0"/>
  <polygon points="71.62 482.12 58.27 482.12 51.29 326.24 26.62 326.24 36.6 504.69 93.28 504.69 103.25 326.24 78.58 326.24 71.62 482.12" fill="#993950" stroke-width="0"/>
  <polygon points="72.06 482.02 58.65 482.02 51.64 325.44 26.86 325.44 36.88 504.69 93.82 504.69 103.84 325.44 79.06 325.44 72.06 482.02" fill="#993950" stroke-width="0"/>
  <polygon points="72.51 481.92 59.03 481.92 52 324.63 27.1 324.63 37.17 504.69 94.36 504.69 104.42 324.63 79.53 324.63 72.51 481.92" fill="#9a3950" stroke-width="0"/>
  <polygon points="72.95 481.81 59.42 481.81 52.35 323.82 27.34 323.82 37.45 504.69 94.91 504.69 105.01 323.82 80.01 323.82 72.95 481.81" fill="#9a3a50" stroke-width="0"/>
  <polygon points="73.39 481.71 59.8 481.71 52.7 323.01 27.58 323.01 37.74 504.69 95.45 504.69 105.6 323.01 80.49 323.01 73.39 481.71" fill="#9a3a4f" stroke-width="0"/>
  <polygon points="73.84 481.61 60.19 481.61 53.05 322.2 27.82 322.2 38.02 504.69 95.99 504.69 106.19 322.2 80.96 322.2 73.84 481.61" fill="#9a3a4f" stroke-width="0"/>
  <polygon points="74.28 481.51 60.57 481.51 53.4 321.39 28.06 321.39 38.31 504.69 96.53 504.69 106.77 321.39 81.44 321.39 74.28 481.51" fill="#9b3b4f" stroke-width="0"/>
  <polygon points="74.73 481.4 60.95 481.4 53.75 320.58 28.3 320.58 38.59 504.69 97.07 504.69 107.36 320.58 81.91 320.58 74.73 481.4" fill="#9b3b4f" stroke-width="0"/>
  <polygon points="75.17 481.3 61.34 481.3 54.11 319.77 28.54 319.77 38.88 504.69 97.62 504.69 107.95 319.77 82.39 319.77 75.17 481.3" fill="#9b3b4f" stroke-width="0"/>
  <polygon points="75.61 481.2 61.72 481.2 54.46 318.96 28.78 318.96 39.16 504.69 98.16 504.69 108.54 318.96 82.86 318.96 75.61 481.2" fill="#9b3b4e" stroke-width="0"/>
  <polygon points="76.06 481.1 62.1 481.1 54.81 318.15 29.02 318.15 39.45 504.69 98.7 504.69 109.12 318.15 83.34 318.15 76.06 481.1" fill="#9b3c4e" stroke-width="0"/>
  <polygon points="76.5 480.99 62.49 480.99 55.16 317.34 29.26 317.34 39.73 504.69 99.24 504.69 109.71 317.34 83.81 317.34 76.5 480.99" fill="#9c3c4e" stroke-width="0"/>
  <polygon points="76.95 480.89 62.87 480.89 55.51 316.53 29.5 316.53 40.02 504.69 99.79 504.69 110.3 316.53 84.29 316.53 76.95 480.89" fill="#9c3c4e" stroke-width="0"/>
  <polygon points="77.39 480.79 63.25 480.79 55.87 315.72 29.74 315.72 40.3 504.69 100.33 504.69 110.89 315.72 84.77 315.72 77.39 480.79" fill="#9c3c4e" stroke-width="0"/>
  <polygon points="77.83 480.69 63.64 480.69 56.22 314.91 29.98 314.91 40.59 504.69 100.87 504.69 111.47 314.91 85.24 314.91 77.83 480.69" fill="#9c3d4d" stroke-width="0"/>
  <polygon points="78.28 480.58 64.02 480.58 56.57 314.1 30.22 314.1 40.87 504.69 101.41 504.69 112.06 314.1 85.72 314.1 78.28 480.58" fill="#9d3d4d" stroke-width="0"/>
  <polygon points="78.72 480.48 64.4 480.48 56.92 313.29 30.46 313.29 41.16 504.69 101.95 504.69 112.65 313.29 86.19 313.29 78.72 480.48" fill="#9d3d4d" stroke-width="0"/>
  <polygon points="79.17 480.38 64.79 480.38 57.27 312.48 30.7 312.48 41.44 504.69 102.5 504.69 113.24 312.48 86.67 312.48 79.17 480.38" fill="#9d3d4d" stroke-width="0"/>
  <polygon points="79.61 480.28 65.17 480.28 57.62 311.67 30.94 311.67 41.73 504.69 103.04 504.69 113.82 311.67 87.14 311.67 79.61 480.28" fill="#9d3e4d" stroke-width="0"/>
  <polygon points="80.05 480.17 65.55 480.17 57.98 310.86 31.18 310.86 42.01 504.69 103.58 504.69 114.41 310.86 87.62 310.86 80.05 480.17" fill="#9d3e4c" stroke-width="0"/>
  <polygon points="80.5 480.07 65.94 480.07 58.33 310.05 31.42 310.05 42.3 504.69 104.12 504.69 115 310.05 88.09 310.05 80.5 480.07" fill="#9e3e4c" stroke-width="0"/>
  <polygon points="80.94 479.97 66.32 479.97 58.68 309.24 31.66 309.24 42.58 504.69 104.67 504.69 115.59 309.24 88.57 309.24 80.94 479.97" fill="#9e3e4c" stroke-width="0"/>
  <polygon points="81.39 479.87 66.7 479.87 59.03 308.43 31.9 308.43 42.87 504.69 105.21 504.69 116.17 308.43 89.05 308.43 81.39 479.87" fill="#9e3f4c" stroke-width="0"/>
  <polygon points="81.83 479.77 67.09 479.77 59.38 307.63 32.14 307.63 43.15 504.69 105.75 504.69 116.76 307.63 89.52 307.63 81.83 479.77" fill="#9e3f4c" stroke-width="0"/>
  <polygon points="82.27 479.66 67.47 479.66 59.73 306.82 32.38 306.82 43.44 504.69 106.29 504.69 117.35 306.82 90 306.82 82.27 479.66" fill="#9f3f4b" stroke-width="0"/>
  <polygon points="82.72 479.56 67.85 479.56 60.09 306.01 32.62 306.01 43.72 504.69 106.83 504.69 117.93 306.01 90.47 306.01 82.72 479.56" fill="#9f3f4b" stroke-width="0"/>
  <polygon points="83.16 479.46 68.24 479.46 60.44 305.2 32.86 305.2 44.01 504.69 107.38 504.69 118.52 305.2 90.95 305.2 83.16 479.46" fill="#9f404b" stroke-width="0"/>
  <polygon points="83.61 479.36 68.62 479.36 60.79 304.39 33.1 304.39 44.29 504.69 107.92 504.69 119.11 304.39 91.42 304.39 83.61 479.36" fill="#9f404b" stroke-width="0"/>
  <polygon points="84.05 479.25 69 479.25 61.14 303.58 33.34 303.58 44.58 504.69 108.46 504.69 119.7 303.58 91.9 303.58 84.05 479.25" fill="#a0404b" stroke-width="0"/>
  <polygon points="84.49 479.15 69.39 479.15 61.49 302.77 33.58 302.77 44.86 504.69 109 504.69 120.28 302.77 92.37 302.77 84.49 479.15" fill="#a0404b" stroke-width="0"/>
  <polygon points="84.94 479.05 69.77 479.05 61.85 301.96 33.82 301.96 45.15 504.69 109.55 504.69 120.87 301.96 92.85 301.96 84.94 479.05" fill="#a0414a" stroke-width="0"/>
  <polygon points="85.38 478.95 70.15 478.95 62.2 301.15 34.06 301.15 45.43 504.69 110.09 504.69 121.46 301.15 93.33 301.15 85.38 478.95" fill="#a0414a" stroke-width="0"/>
  <polygon points="85.83 478.84 70.54 478.84 62.55 300.34 34.3 300.34 45.72 504.69 110.63 504.69 122.05 300.34 93.8 300.34 85.83 478.84" fill="#a0414a" stroke-width="0"/>
  <polygon points="86.27 478.74 70.92 478.74 62.9 299.53 34.54 299.53 46 504.69 111.17 504.69 122.63 299.53 94.28 299.53 86.27 478.74" fill="#a1414a" stroke-width="0"/>
  <polygon points="86.71 478.64 71.3 478.64 63.25 298.72 34.78 298.72 46.29 504.69 111.72 504.69 123.22 298.72 94.75 298.72 86.71 478.64" fill="#a1424a" stroke-width="0"/>
  <polygon points="87.16 478.54 71.69 478.54 63.6 297.91 35.02 297.91 46.57 504.69 112.26 504.69 123.81 297.91 95.23 297.91 87.16 478.54" fill="#a14249" stroke-width="0"/>
  <polygon points="87.6 478.43 72.07 478.43 63.96 297.1 35.26 297.1 46.86 504.69 112.8 504.69 124.4 297.1 95.7 297.1 87.6 478.43" fill="#a14249" stroke-width="0"/>
  <polygon points="88.05 478.33 72.45 478.33 64.31 296.29 35.5 296.29 47.14 504.69 113.34 504.69 124.98 296.29 96.18 296.29 88.05 478.33" fill="#a24249" stroke-width="0"/>
  <polygon points="88.49 478.23 72.84 478.23 64.66 295.48 35.74 295.48 47.43 504.69 113.88 504.69 125.57 295.48 96.65 295.48 88.49 478.23" fill="#a24349" stroke-width="0"/>
  <polygon points="88.93 478.13 73.22 478.13 65.01 294.67 35.98 294.67 47.71 504.69 114.43 504.69 126.16 294.67 97.13 294.67 88.93 478.13" fill="#a24349" stroke-width="0"/>
  <polygon points="89.38 478.02 73.6 478.02 65.36 293.86 36.22 293.86 48 504.69 114.97 504.69 126.75 293.86 97.61 293.86 89.38 478.02" fill="#a24348" stroke-width="0"/>
  <polygon points="89.82 477.92 73.99 477.92 65.71 293.05 36.46 293.05 48.29 504.69 115.51 504.69 127.33 293.05 98.08 293.05 89.82 477.92" fill="#a24348" stroke-width="0"/>
  <polygon points="90.27 477.82 74.37 477.82 66.07 292.24 36.7 292.24 48.57 504.69 116.05 504.69 127.92 292.24 98.56 292.24 90.27 477.82" fill="#a34448" stroke-width="0"/>
  <polygon points="90.71 477.72 74.75 477.72 66.42 291.43 36.94 291.43 48.86 504.69 116.6 504.69 128.51 291.43 99.03 291.43 90.71 477.72" fill="#a34448" stroke-width="0"/>
  <polygon points="91.15 477.62 75.14 477.62 66.77 290.63 37.18 290.63 49.14 504.69 117.14 504.69 129.1 290.63 99.51 290.63 91.15 477.62" fill="#a34448" stroke-width="0"/>
  <polygon points="91.6 477.51 75.52 477.51 67.12 289.82 37.42 289.82 49.43 504.69 117.68 504.69 129.68 289.82 99.98 289.82 91.6 477.51" fill="#a34447" stroke-width="0"/>
  <polygon points="92.04 477.41 75.9 477.41 67.47 289.01 37.66 289.01 49.71 504.69 118.22 504.69 130.27 289.01 100.46 289.01 92.04 477.41" fill="#a44547" stroke-width="0"/>
  <polygon points="92.48 477.31 76.29 477.31 67.83 288.2 37.9 288.2 50 504.69 118.76 504.69 130.86 288.2 100.93 288.2 92.48 477.31" fill="#a44547" stroke-width="0"/>
  <polygon points="92.93 477.21 76.67 477.21 68.18 287.39 38.14 287.39 50.28 504.69 119.31 504.69 131.45 287.39 101.41 287.39 92.93 477.21" fill="#a44547" stroke-width="0"/>
  <polygon points="93.37 477.1 77.06 477.1 68.53 286.58 38.38 286.58 50.57 504.69 119.85 504.69 132.03 286.58 101.89 286.58 93.37 477.1" fill="#a44547" stroke-width="0"/>
  <polygon points="93.82 477 77.44 477 68.88 285.77 38.62 285.77 50.85 504.69 120.39 504.69 132.62 285.77 102.36 285.77 93.82 477" fill="#a54647" stroke-width="0"/>
  <polygon points="94.26 476.9 77.82 476.9 69.23 284.96 38.86 284.96 51.14 504.69 120.93 504.69 133.21 284.96 102.84 284.96 94.26 476.9" fill="#a54646" stroke-width="0"/>
  <polygon points="94.7 476.8 78.21 476.8 69.58 284.15 39.1 284.15 51.42 504.69 121.48 504.69 133.8 284.15 103.31 284.15 94.7 476.8" fill="#a54646" stroke-width="0"/>
  <polygon points="95.15 476.69 78.59 476.69 69.94 283.34 39.34 283.34 51.71 504.69 122.02 504.69 134.38 283.34 103.79 283.34 95.15 476.69" fill="#a54646" stroke-width="0"/>
  <polygon points="95.59 476.59 78.97 476.59 70.29 282.53 39.58 282.53 51.99 504.69 122.56 504.69 134.97 282.53 104.26 282.53 95.59 476.59" fill="#a54746" stroke-width="0"/>
  <polygon points="96.04 476.49 79.36 476.49 70.64 281.72 39.81 281.72 52.28 504.69 123.1 504.69 135.56 281.72 104.74 281.72 96.04 476.49" fill="#a64746" stroke-width="0"/>
  <polygon points="96.48 476.39 79.74 476.39 70.99 280.91 40.05 280.91 52.56 504.69 123.64 504.69 136.15 280.91 105.21 280.91 96.48 476.39" fill="#a64745" stroke-width="0"/>
  <polygon points="96.92 476.28 80.12 476.28 71.34 280.1 40.29 280.1 52.85 504.69 124.19 504.69 136.73 280.1 105.69 280.1 96.92 476.28" fill="#a64745" stroke-width="0"/>
  <polygon points="97.37 476.18 80.51 476.18 71.69 279.29 40.53 279.29 53.13 504.69 124.73 504.69 137.32 279.29 106.17 279.29 97.37 476.18" fill="#a64845" stroke-width="0"/>
  <polygon points="97.81 476.08 80.89 476.08 72.05 278.48 40.77 278.48 53.42 504.69 125.27 504.69 137.91 278.48 106.64 278.48 97.81 476.08" fill="#a74845" stroke-width="0"/>
  <polygon points="98.26 475.98 81.27 475.98 72.4 277.67 41.01 277.67 53.7 504.69 125.81 504.69 138.5 277.67 107.12 277.67 98.26 475.98" fill="#a74845" stroke-width="0"/>
  <polygon points="98.7 475.87 81.66 475.87 72.75 276.86 41.25 276.86 53.99 504.69 126.36 504.69 139.08 276.86 107.59 276.86 98.7 475.87" fill="#a74844" stroke-width="0"/>
  <polygon points="99.14 475.77 82.04 475.77 73.1 276.05 41.49 276.05 54.27 504.69 126.9 504.69 139.67 276.05 108.07 276.05 99.14 475.77" fill="#a74944" stroke-width="0"/>
  <polygon points="99.59 475.67 82.42 475.67 73.45 275.24 41.73 275.24 54.56 504.69 127.44 504.69 140.26 275.24 108.54 275.24 99.59 475.67" fill="#a84944" stroke-width="0"/>
  <polygon points="100.03 475.57 82.81 475.57 73.81 274.43 41.97 274.43 54.84 504.69 127.98 504.69 140.85 274.43 109.02 274.43 100.03 475.57" fill="#a84944" stroke-width="0"/>
  <polygon points="100.48 475.47 83.19 475.47 74.16 273.62 42.21 273.62 55.13 504.69 128.52 504.69 141.43 273.62 109.5 273.62 100.48 475.47" fill="#a84944" stroke-width="0"/>
  <polygon points="100.92 475.36 83.57 475.36 74.51 272.82 42.45 272.82 55.41 504.69 129.07 504.69 142.02 272.82 109.97 272.82 100.92 475.36" fill="#a84a43" stroke-width="0"/>
  <polygon points="101.36 475.26 83.96 475.26 74.86 272.01 42.69 272.01 55.7 504.69 129.61 504.69 142.61 272.01 110.45 272.01 101.36 475.26" fill="#a84a43" stroke-width="0"/>
  <polygon points="101.81 475.16 84.34 475.16 75.21 271.2 42.93 271.2 55.98 504.69 130.15 504.69 143.2 271.2 110.92 271.2 101.81 475.16" fill="#a94a43" stroke-width="0"/>
  <polygon points="102.25 475.06 84.72 475.06 75.56 270.39 43.17 270.39 56.27 504.69 130.69 504.69 143.78 270.39 111.4 270.39 102.25 475.06" fill="#a94a43" stroke-width="0"/>
  <polygon points="102.7 474.95 85.11 474.95 75.92 269.58 43.41 269.58 56.55 504.69 131.24 504.69 144.37 269.58 111.87 269.58 102.7 474.95" fill="#a94b43" stroke-width="0"/>
  <polygon points="103.14 474.85 85.49 474.85 76.27 268.77 43.65 268.77 56.84 504.69 131.78 504.69 144.96 268.77 112.35 268.77 103.14 474.85" fill="#a94b43" stroke-width="0"/>
  <polygon points="103.58 474.75 85.87 474.75 76.62 267.96 43.89 267.96 57.12 504.69 132.32 504.69 145.55 267.96 112.82 267.96 103.58 474.75" fill="#aa4b42" stroke-width="0"/>
  <polygon points="104.03 474.65 86.26 474.65 76.97 267.15 44.13 267.15 57.41 504.69 132.86 504.69 146.13 267.15 113.3 267.15 104.03 474.65" fill="#aa4b42" stroke-width="0"/>
  <polygon points="104.47 474.54 86.64 474.54 77.32 266.34 44.37 266.34 57.69 504.69 133.41 504.69 146.72 266.34 113.78 266.34 104.47 474.54" fill="#aa4c42" stroke-width="0"/>
  <polygon points="104.92 474.44 87.02 474.44 77.67 265.53 44.61 265.53 57.98 504.69 133.95 504.69 147.31 265.53 114.25 265.53 104.92 474.44" fill="#aa4c42" stroke-width="0"/>
  <polygon points="105.36 474.34 87.41 474.34 78.03 264.72 44.85 264.72 58.26 504.69 134.49 504.69 147.9 264.72 114.73 264.72 105.36 474.34" fill="#aa4c42" stroke-width="0"/>
  <polygon points="105.8 474.24 87.79 474.24 78.38 263.91 45.09 263.91 58.55 504.69 135.03 504.69 148.48 263.91 115.2 263.91 105.8 474.24" fill="#ab4c41" stroke-width="0"/>
  <polygon points="106.25 474.13 88.17 474.13 78.73 263.1 45.33 263.1 58.83 504.69 135.57 504.69 149.07 263.1 115.68 263.1 106.25 474.13" fill="#ab4d41" stroke-width="0"/>
  <polygon points="106.69 474.03 88.56 474.03 79.08 262.29 45.57 262.29 59.12 504.69 136.12 504.69 149.66 262.29 116.15 262.29 106.69 474.03" fill="#ab4d41" stroke-width="0"/>
  <polygon points="107.14 473.93 88.94 473.93 79.43 261.48 45.81 261.48 59.4 504.69 136.66 504.69 150.25 261.48 116.63 261.48 107.14 473.93" fill="#ab4d41" stroke-width="0"/>
  <polygon points="107.58 473.83 89.32 473.83 79.79 260.67 46.05 260.67 59.69 504.69 137.2 504.69 150.83 260.67 117.1 260.67 107.58 473.83" fill="#ac4d41" stroke-width="0"/>
  <polygon points="108.02 473.72 89.71 473.72 80.14 259.86 46.29 259.86 59.97 504.69 137.74 504.69 151.42 259.86 117.58 259.86 108.02 473.72" fill="#ac4e40" stroke-width="0"/>
  <polygon points="108.47 473.62 90.09 473.62 80.49 259.05 46.53 259.05 60.26 504.69 138.29 504.69 152.01 259.05 118.06 259.05 108.47 473.62" fill="#ac4e40" stroke-width="0"/>
  <polygon points="108.91 473.52 90.47 473.52 80.84 258.24 46.77 258.24 60.54 504.69 138.83 504.69 152.6 258.24 118.53 258.24 108.91 473.52" fill="#ac4e40" stroke-width="0"/>
  <polygon points="109.36 473.42 90.86 473.42 81.19 257.43 47.01 257.43 60.83 504.69 139.37 504.69 153.18 257.43 119.01 257.43 109.36 473.42" fill="#ad4e40" stroke-width="0"/>
  <polygon points="109.8 473.32 91.24 473.32 81.54 256.62 47.25 256.62 61.11 504.69 139.91 504.69 153.77 256.62 119.48 256.62 109.8 473.32" fill="#ad4f40" stroke-width="0"/>
  <polygon points="110.24 473.21 91.62 473.21 81.9 255.81 47.49 255.81 61.4 504.69 140.45 504.69 154.36 255.81 119.96 255.81 110.24 473.21" fill="#ad4f3f" stroke-width="0"/>
  <polygon points="110.69 473.11 92.01 473.11 82.25 255.01 47.73 255.01 61.68 504.69 141 504.69 154.95 255.01 120.43 255.01 110.69 473.11" fill="#ad4f3f" stroke-width="0"/>
  <polygon points="111.13 473.01 92.39 473.01 82.6 254.2 47.97 254.2 61.97 504.69 141.54 504.69 155.53 254.2 120.91 254.2 111.13 473.01" fill="#ad503f" stroke-width="0"/>
  <polygon points="111.58 472.91 92.78 472.91 82.95 253.39 48.21 253.39 62.25 504.69 142.08 504.69 156.12 253.39 121.38 253.39 111.58 472.91" fill="#ae503f" stroke-width="0"/>
  <polygon points="112.02 472.8 93.16 472.8 83.3 252.58 48.45 252.58 62.54 504.69 142.62 504.69 156.71 252.58 121.86 252.58 112.02 472.8" fill="#ae503f" stroke-width="0"/>
  <polygon points="112.46 472.7 93.54 472.7 83.65 251.77 48.69 251.77 62.82 504.69 143.17 504.69 157.3 251.77 122.34 251.77 112.46 472.7" fill="#ae503e" stroke-width="0"/>
  <polygon points="112.91 472.6 93.93 472.6 84.01 250.96 48.93 250.96 63.11 504.69 143.71 504.69 157.88 250.96 122.81 250.96 112.91 472.6" fill="#ae513e" stroke-width="0"/>
  <polygon points="113.35 472.5 94.31 472.5 84.36 250.15 49.17 250.15 63.4 504.69 144.25 504.69 158.47 250.15 123.29 250.15 113.35 472.5" fill="#af513e" stroke-width="0"/>
  <polygon points="113.8 472.39 94.69 472.39 84.71 249.34 49.41 249.34 63.68 504.69 144.79 504.69 159.06 249.34 123.76 249.34 113.8 472.39" fill="#af513e" stroke-width="0"/>
  <polygon points="114.24 472.29 95.08 472.29 85.06 248.53 49.65 248.53 63.97 504.69 145.33 504.69 159.65 248.53 124.24 248.53 114.24 472.29" fill="#af513e" stroke-width="0"/>
  <polygon points="114.68 472.19 95.46 472.19 85.41 247.72 49.89 247.72 64.25 504.69 145.88 504.69 160.23 247.72 124.71 247.72 114.68 472.19" fill="#af523e" stroke-width="0"/>
  <polygon points="115.13 472.09 95.84 472.09 85.77 246.91 50.13 246.91 64.54 504.69 146.42 504.69 160.82 246.91 125.19 246.91 115.13 472.09" fill="#af523d" stroke-width="0"/>
  <polygon points="115.57 471.98 96.23 471.98 86.12 246.1 50.37 246.1 64.82 504.69 146.96 504.69 161.41 246.1 125.66 246.1 115.57 471.98" fill="#b0523d" stroke-width="0"/>
  <polygon points="116.02 471.88 96.61 471.88 86.47 245.29 50.61 245.29 65.11 504.69 147.5 504.69 162 245.29 126.14 245.29 116.02 471.88" fill="#b0523d" stroke-width="0"/>
  <polygon points="116.46 471.78 96.99 471.78 86.82 244.48 50.85 244.48 65.39 504.69 148.05 504.69 162.58 244.48 126.62 244.48 116.46 471.78" fill="#b0533d" stroke-width="0"/>
  <polygon points="116.9 471.68 97.38 471.68 87.17 243.67 51.09 243.67 65.68 504.69 148.59 504.69 163.17 243.67 127.09 243.67 116.9 471.68" fill="#b0533d" stroke-width="0"/>
  <polygon points="117.35 471.57 97.76 471.57 87.52 242.86 51.33 242.86 65.96 504.69 149.13 504.69 163.76 242.86 127.57 242.86 117.35 471.57" fill="#b1533c" stroke-width="0"/>
  <polygon points="117.79 471.47 98.14 471.47 87.88 242.05 51.57 242.05 66.25 504.69 149.67 504.69 164.35 242.05 128.04 242.05 117.79 471.47" fill="#b1533c" stroke-width="0"/>
  <polygon points="118.24 471.37 98.53 471.37 88.23 241.24 51.81 241.24 66.53 504.69 150.21 504.69 164.93 241.24 128.52 241.24 118.24 471.37" fill="#b1543c" stroke-width="0"/>
  <polygon points="118.68 471.27 98.91 471.27 88.58 240.43 52.05 240.43 66.82 504.69 150.76 504.69 165.52 240.43 128.99 240.43 118.68 471.27" fill="#b1543c" stroke-width="0"/>
  <polygon points="119.12 471.17 99.29 471.17 88.93 239.62 52.29 239.62 67.1 504.69 151.3 504.69 166.11 239.62 129.47 239.62 119.12 471.17" fill="#b2543c" stroke-width="0"/>
  <polygon points="119.57 471.06 99.68 471.06 89.28 238.81 52.53 238.81 67.39 504.69 151.84 504.69 166.7 238.81 129.94 238.81 119.57 471.06" fill="#b2543b" stroke-width="0"/>
  <polygon points="120.01 470.96 100.06 470.96 89.63 238 52.77 238 67.67 504.69 152.38 504.69 167.28 238 130.42 238 120.01 470.96" fill="#b2553b" stroke-width="0"/>
  <polygon points="120.46 470.86 100.44 470.86 89.99 237.2 53.01 237.2 67.96 504.69 152.93 504.69 167.87 237.2 130.9 237.2 120.46 470.86" fill="#b2553b" stroke-width="0"/>
  <polygon points="120.9 470.76 100.83 470.76 90.34 236.39 53.25 236.39 68.24 504.69 153.47 504.69 168.46 236.39 131.37 236.39 120.9 470.76" fill="#b2553b" stroke-width="0"/>
  <polygon points="121.34 470.65 101.21 470.65 90.69 235.58 53.49 235.58 68.53 504.69 154.01 504.69 169.05 235.58 131.85 235.58 121.34 470.65" fill="#b3553b" stroke-width="0"/>
  <polygon points="121.79 470.55 101.59 470.55 91.04 234.77 53.73 234.77 68.81 504.69 154.55 504.69 169.63 234.77 132.32 234.77 121.79 470.55" fill="#b3563a" stroke-width="0"/>
  <polygon points="122.23 470.45 101.98 470.45 91.39 233.96 53.97 233.96 69.1 504.69 155.09 504.69 170.22 233.96 132.8 233.96 122.23 470.45" fill="#b3563a" stroke-width="0"/>
  <polygon points="122.68 470.35 102.36 470.35 91.75 233.15 54.21 233.15 69.38 504.69 155.64 504.69 170.81 233.15 133.27 233.15 122.68 470.35" fill="#b3563a" stroke-width="0"/>
  <polygon points="123.12 470.24 102.74 470.24 92.1 232.34 54.45 232.34 69.67 504.69 156.18 504.69 171.4 232.34 133.75 232.34 123.12 470.24" fill="#b4563a" stroke-width="0"/>
  <polygon points="123.56 470.14 103.13 470.14 92.45 231.53 54.69 231.53 69.95 504.69 156.72 504.69 171.98 231.53 134.22 231.53 123.56 470.14" fill="#b4573a" stroke-width="0"/>
  <polygon points="124.01 470.04 103.51 470.04 92.8 230.72 54.93 230.72 70.24 504.69 157.26 504.69 172.57 230.72 134.7 230.72 124.01 470.04" fill="#b4573a" stroke-width="0"/>
  <polygon points="124.45 469.94 103.89 469.94 93.15 229.91 55.17 229.91 70.52 504.69 157.81 504.69 173.16 229.91 135.18 229.91 124.45 469.94" fill="#b45739" stroke-width="0"/>
  <polygon points="124.9 469.83 104.28 469.83 93.5 229.1 55.41 229.1 70.81 504.69 158.35 504.69 173.74 229.1 135.65 229.1 124.9 469.83" fill="#b55739" stroke-width="0"/>
  <polygon points="125.34 469.73 104.66 469.73 93.86 228.29 55.64 228.29 71.09 504.69 158.89 504.69 174.33 228.29 136.13 228.29 125.34 469.73" fill="#b55839" stroke-width="0"/>
  <polygon points="125.78 469.63 105.04 469.63 94.21 227.48 55.88 227.48 71.38 504.69 159.43 504.69 174.92 227.48 136.6 227.48 125.78 469.63" fill="#b55839" stroke-width="0"/>
  <polygon points="126.23 469.53 105.43 469.53 94.56 226.67 56.12 226.67 71.66 504.69 159.98 504.69 175.51 226.67 137.08 226.67 126.23 469.53" fill="#b55839" stroke-width="0"/>
  <polygon points="126.67 469.42 105.81 469.42 94.91 225.86 56.36 225.86 71.95 504.69 160.52 504.69 176.09 225.86 137.55 225.86 126.67 469.42" fill="#b55838" stroke-width="0"/>
  <polygon points="127.12 469.32 106.19 469.32 95.26 225.05 56.6 225.05 72.23 504.69 161.06 504.69 176.68 225.05 138.03 225.05 127.12 469.32" fill="#b65938" stroke-width="0"/>
  <polygon points="127.56 469.22 106.58 469.22 95.61 224.24 56.84 224.24 72.52 504.69 161.6 504.69 177.27 224.24 138.51 224.24 127.56 469.22" fill="#b65938" stroke-width="0"/>
  <polygon points="128 469.12 106.96 469.12 95.97 223.43 57.08 223.43 72.8 504.69 162.14 504.69 177.86 223.43 138.98 223.43 128 469.12" fill="#b65938" stroke-width="0"/>
  <polygon points="128.45 469.02 107.34 469.02 96.32 222.62 57.32 222.62 73.09 504.69 162.69 504.69 178.44 222.62 139.46 222.62 128.45 469.02" fill="#b65938" stroke-width="0"/>
  <polygon points="128.89 468.91 107.73 468.91 96.67 221.81 57.56 221.81 73.37 504.69 163.23 504.69 179.03 221.81 139.93 221.81 128.89 468.91" fill="#b75a37" stroke-width="0"/>
  <polygon points="129.34 468.81 108.11 468.81 97.02 221 57.8 221 73.66 504.69 163.77 504.69 179.62 221 140.41 221 129.34 468.81" fill="#b75a37" stroke-width="0"/>
  <polygon points="129.78 468.71 108.49 468.71 97.37 220.2 58.04 220.2 73.94 504.69 164.31 504.69 180.21 220.2 140.88 220.2 129.78 468.71" fill="#b75a37" stroke-width="0"/>
  <polygon points="130.22 468.61 108.88 468.61 97.73 219.39 58.28 219.39 74.23 504.69 164.86 504.69 180.79 219.39 141.36 219.39 130.22 468.61" fill="#b75a37" stroke-width="0"/>
  <polygon points="130.67 468.5 109.26 468.5 98.08 218.58 58.52 218.58 74.51 504.69 165.4 504.69 181.38 218.58 141.83 218.58 130.67 468.5" fill="#b75b37" stroke-width="0"/>
  <polygon points="131.11 468.4 109.65 468.4 98.43 217.77 58.76 217.77 74.8 504.69 165.94 504.69 181.97 217.77 142.31 217.77 131.11 468.4" fill="#b85b36" stroke-width="0"/>
  <polygon points="131.55 468.3 110.03 468.3 98.78 216.96 59 216.96 75.08 504.69 166.48 504.69 182.56 216.96 142.79 216.96 131.55 468.3" fill="#b85b36" stroke-width="0"/>
  <polygon points="132 468.2 110.41 468.2 99.13 216.15 59.24 216.15 75.37 504.69 167.02 504.69 183.14 216.15 143.26 216.15 132 468.2" fill="#b85b36" stroke-width="0"/>
  <polygon points="132.44 468.09 110.8 468.09 99.48 215.34 59.48 215.34 75.65 504.69 167.57 504.69 183.73 215.34 143.74 215.34 132.44 468.09" fill="#b85c36" stroke-width="0"/>
  <polygon points="132.89 467.99 111.18 467.99 99.84 214.53 59.72 214.53 75.94 504.69 168.11 504.69 184.32 214.53 144.21 214.53 132.89 467.99" fill="#b95c36" stroke-width="0"/>
  <polygon points="133.33 467.89 111.56 467.89 100.19 213.72 59.96 213.72 76.22 504.69 168.65 504.69 184.91 213.72 144.69 213.72 133.33 467.89" fill="#b95c35" stroke-width="0"/>
  <polygon points="133.77 467.79 111.95 467.79 100.54 212.91 60.2 212.91 76.51 504.69 169.19 504.69 185.49 212.91 145.16 212.91 133.77 467.79" fill="#b95c35" stroke-width="0"/>
  <polygon points="134.22 467.68 112.33 467.68 100.89 212.1 60.44 212.1 76.79 504.69 169.74 504.69 186.08 212.1 145.64 212.1 134.22 467.68" fill="#b95d35" stroke-width="0"/>
  <polygon points="134.66 467.58 112.71 467.58 101.24 211.29 60.68 211.29 77.08 504.69 170.28 504.69 186.67 211.29 146.11 211.29 134.66 467.58" fill="#ba5d35" stroke-width="0"/>
  <polygon points="135.11 467.48 113.1 467.48 101.59 210.48 60.92 210.48 77.36 504.69 170.82 504.69 187.26 210.48 146.59 210.48 135.11 467.48" fill="#ba5d35" stroke-width="0"/>
  <polygon points="135.55 467.38 113.48 467.38 101.95 209.67 61.16 209.67 77.65 504.69 171.36 504.69 187.84 209.67 147.07 209.67 135.55 467.38" fill="#ba5d35" stroke-width="0"/>
  <polygon points="135.99 467.27 113.86 467.27 102.3 208.86 61.4 208.86 77.93 504.69 171.9 504.69 188.43 208.86 147.54 208.86 135.99 467.27" fill="#ba5e34" stroke-width="0"/>
  <polygon points="136.44 467.17 114.25 467.17 102.65 208.05 61.64 208.05 78.22 504.69 172.45 504.69 189.02 208.05 148.02 208.05 136.44 467.17" fill="#ba5e34" stroke-width="0"/>
  <polygon points="136.88 467.07 114.63 467.07 103 207.24 61.88 207.24 78.51 504.69 172.99 504.69 189.61 207.24 148.49 207.24 136.88 467.07" fill="#bb5e34" stroke-width="0"/>
  <polygon points="137.33 466.97 115.01 466.97 103.35 206.43 62.12 206.43 78.79 504.69 173.53 504.69 190.19 206.43 148.97 206.43 137.33 466.97" fill="#bb5e34" stroke-width="0"/>
  <polygon points="137.77 466.87 115.4 466.87 103.71 205.62 62.36 205.62 79.08 504.69 174.07 504.69 190.78 205.62 149.44 205.62 137.77 466.87" fill="#bb5f34" stroke-width="0"/>
  <polygon points="138.21 466.76 115.78 466.76 104.06 204.81 62.6 204.81 79.36 504.69 174.62 504.69 191.37 204.81 149.92 204.81 138.21 466.76" fill="#bb5f33" stroke-width="0"/>
  <polygon points="138.66 466.66 116.16 466.66 104.41 204 62.84 204 79.65 504.69 175.16 504.69 191.96 204 150.39 204 138.66 466.66" fill="#bc5f33" stroke-width="0"/>
  <polygon points="139.1 466.56 116.55 466.56 104.76 203.19 63.08 203.19 79.93 504.69 175.7 504.69 192.54 203.19 150.87 203.19 139.1 466.56" fill="#bc5f33" stroke-width="0"/>
  <polygon points="139.55 466.46 116.93 466.46 105.11 202.39 63.32 202.39 80.22 504.69 176.24 504.69 193.13 202.39 151.35 202.39 139.55 466.46" fill="#bc6033" stroke-width="0"/>
  <polygon points="139.99 466.35 117.31 466.35 105.46 201.58 63.56 201.58 80.5 504.69 176.78 504.69 193.72 201.58 151.82 201.58 139.99 466.35" fill="#bc6033" stroke-width="0"/>
  <polygon points="140.43 466.25 117.7 466.25 105.82 200.77 63.8 200.77 80.79 504.69 177.33 504.69 194.31 200.77 152.3 200.77 140.43 466.25" fill="#bc6032" stroke-width="0"/>
  <polygon points="140.88 466.15 118.08 466.15 106.17 199.96 64.04 199.96 81.07 504.69 177.87 504.69 194.89 199.96 152.77 199.96 140.88 466.15" fill="#bd6032" stroke-width="0"/>
  <polygon points="141.32 466.05 118.46 466.05 106.52 199.15 64.28 199.15 81.36 504.69 178.41 504.69 195.48 199.15 153.25 199.15 141.32 466.05" fill="#bd6132" stroke-width="0"/>
  <polygon points="141.77 465.94 118.85 465.94 106.87 198.34 64.52 198.34 81.64 504.69 178.95 504.69 196.07 198.34 153.72 198.34 141.77 465.94" fill="#bd6132" stroke-width="0"/>
  <polygon points="142.21 465.84 119.23 465.84 107.22 197.53 64.76 197.53 81.93 504.69 179.5 504.69 196.66 197.53 154.2 197.53 142.21 465.84" fill="#bd6132" stroke-width="0"/>
  <polygon points="142.65 465.74 119.61 465.74 107.57 196.72 65 196.72 82.21 504.69 180.04 504.69 197.24 196.72 154.67 196.72 142.65 465.74" fill="#be6131" stroke-width="0"/>
  <polygon points="143.1 465.64 120 465.64 107.93 195.91 65.24 195.91 82.5 504.69 180.58 504.69 197.83 195.91 155.15 195.91 143.1 465.64" fill="#be6231" stroke-width="0"/>
  <polygon points="143.54 465.53 120.38 465.53 108.28 195.1 65.48 195.1 82.78 504.69 181.12 504.69 198.42 195.1 155.63 195.1 143.54 465.53" fill="#be6231" stroke-width="0"/>
  <polygon points="143.99 465.43 120.76 465.43 108.63 194.29 65.72 194.29 83.07 504.69 181.66 504.69 199.01 194.29 156.1 194.29 143.99 465.43" fill="#be6231" stroke-width="0"/>
  <polygon points="144.43 465.33 121.15 465.33 108.98 193.48 65.96 193.48 83.35 504.69 182.21 504.69 199.59 193.48 156.58 193.48 144.43 465.33" fill="#bf6231" stroke-width="0"/>
  <polygon points="144.87 465.23 121.53 465.23 109.33 192.67 66.2 192.67 83.64 504.69 182.75 504.69 200.18 192.67 157.05 192.67 144.87 465.23" fill="#bf6331" stroke-width="0"/>
  <polygon points="145.32 465.12 121.91 465.12 109.69 191.86 66.44 191.86 83.92 504.69 183.29 504.69 200.77 191.86 157.53 191.86 145.32 465.12" fill="#bf6330" stroke-width="0"/>
  <polygon points="145.76 465.02 122.3 465.02 110.04 191.05 66.68 191.05 84.21 504.69 183.83 504.69 201.36 191.05 158 191.05 145.76 465.02" fill="#bf6330" stroke-width="0"/>
  <polygon points="146.21 464.92 122.68 464.92 110.39 190.24 66.92 190.24 84.49 504.69 184.38 504.69 201.94 190.24 158.48 190.24 146.21 464.92" fill="#bf6430" stroke-width="0"/>
  <polygon points="146.65 464.82 123.06 464.82 110.74 189.43 67.16 189.43 84.78 504.69 184.92 504.69 202.53 189.43 158.95 189.43 146.65 464.82" fill="#c06430" stroke-width="0"/>
  <polygon points="147.09 464.72 123.45 464.72 111.09 188.62 67.4 188.62 85.06 504.69 185.46 504.69 203.12 188.62 159.43 188.62 147.09 464.72" fill="#c06430" stroke-width="0"/>
  <polygon points="147.54 464.61 123.83 464.61 111.44 187.81 67.64 187.81 85.35 504.69 186 504.69 203.71 187.81 159.91 187.81 147.54 464.61" fill="#c0642f" stroke-width="0"/>
  <polygon points="147.98 464.51 124.21 464.51 111.8 187 67.88 187 85.63 504.69 186.55 504.69 204.29 187 160.38 187 147.98 464.51" fill="#c0652f" stroke-width="0"/>
  <polygon points="148.43 464.41 124.6 464.41 112.15 186.19 68.12 186.19 85.92 504.69 187.09 504.69 204.88 186.19 160.86 186.19 148.43 464.41" fill="#c1652f" stroke-width="0"/>
  <polygon points="148.87 464.31 124.98 464.31 112.5 185.38 68.36 185.38 86.2 504.69 187.63 504.69 205.47 185.38 161.33 185.38 148.87 464.31" fill="#c1652f" stroke-width="0"/>
  <polygon points="149.31 464.2 125.37 464.2 112.85 184.58 68.6 184.58 86.49 504.69 188.17 504.69 206.06 184.58 161.81 184.58 149.31 464.2" fill="#c1652f" stroke-width="0"/>
  <polygon points="149.76 464.1 125.75 464.1 113.2 183.77 68.84 183.77 86.77 504.69 188.71 504.69 206.64 183.77 162.28 183.77 149.76 464.1" fill="#c1662e" stroke-width="0"/>
  <polygon points="150.2 464 126.13 464 113.55 182.96 69.08 182.96 87.06 504.69 189.26 504.69 207.23 182.96 162.76 182.96 150.2 464" fill="#c1662e" stroke-width="0"/>
  <polygon points="150.65 463.9 126.52 463.9 113.91 182.15 69.32 182.15 87.34 504.69 189.8 504.69 207.82 182.15 163.24 182.15 150.65 463.9" fill="#c2662e" stroke-width="0"/>
  <polygon points="151.09 463.79 126.9 463.79 114.26 181.34 69.56 181.34 87.63 504.69 190.34 504.69 208.41 181.34 163.71 181.34 151.09 463.79" fill="#c2662e" stroke-width="0"/>
  <polygon points="151.53 463.69 127.28 463.69 114.61 180.53 69.8 180.53 87.91 504.69 190.88 504.69 208.99 180.53 164.19 180.53 151.53 463.69" fill="#c2672e" stroke-width="0"/>
  <polygon points="151.98 463.59 127.67 463.59 114.96 179.72 70.04 179.72 88.2 504.69 191.43 504.69 209.58 179.72 164.66 179.72 151.98 463.59" fill="#c2672d" stroke-width="0"/>
  <polygon points="152.42 463.49 128.05 463.49 115.31 178.91 70.28 178.91 88.48 504.69 191.97 504.69 210.17 178.91 165.14 178.91 152.42 463.49" fill="#c3672d" stroke-width="0"/>
  <polygon points="152.87 463.38 128.43 463.38 115.67 178.1 70.52 178.1 88.77 504.69 192.51 504.69 210.76 178.1 165.61 178.1 152.87 463.38" fill="#c3672d" stroke-width="0"/>
  <polygon points="153.31 463.28 128.82 463.28 116.02 177.29 70.76 177.29 89.05 504.69 193.05 504.69 211.34 177.29 166.09 177.29 153.31 463.28" fill="#c3682d" stroke-width="0"/>
  <polygon points="153.75 463.18 129.2 463.18 116.37 176.48 71 176.48 89.34 504.69 193.59 504.69 211.93 176.48 166.56 176.48 153.75 463.18" fill="#c3682d" stroke-width="0"/>
  <polygon points="154.2 463.08 129.58 463.08 116.72 175.67 71.24 175.67 89.62 504.69 194.14 504.69 212.52 175.67 167.04 175.67 154.2 463.08" fill="#c4682d" stroke-width="0"/>
  <polygon points="154.64 462.97 129.97 462.97 117.07 174.86 71.47 174.86 89.91 504.69 194.68 504.69 213.11 174.86 167.52 174.86 154.64 462.97" fill="#c4682c" stroke-width="0"/>
  <polygon points="155.09 462.87 130.35 462.87 117.42 174.05 71.71 174.05 90.19 504.69 195.22 504.69 213.69 174.05 167.99 174.05 155.09 462.87" fill="#c4692c" stroke-width="0"/>
  <polygon points="155.53 462.77 130.73 462.77 117.78 173.24 71.95 173.24 90.48 504.69 195.76 504.69 214.28 173.24 168.47 173.24 155.53 462.77" fill="#c4692c" stroke-width="0"/>
  <polygon points="155.97 462.67 131.12 462.67 118.13 172.43 72.19 172.43 90.76 504.69 196.31 504.69 214.87 172.43 168.94 172.43 155.97 462.67" fill="#c4692c" stroke-width="0"/>
  <polygon points="156.42 462.57 131.5 462.57 118.48 171.62 72.43 171.62 91.05 504.69 196.85 504.69 215.46 171.62 169.42 171.62 156.42 462.57" fill="#c5692c" stroke-width="0"/>
  <polygon points="156.86 462.46 131.88 462.46 118.83 170.81 72.67 170.81 91.33 504.69 197.39 504.69 216.04 170.81 169.89 170.81 156.86 462.46" fill="#c56a2b" stroke-width="0"/>
  <polygon points="157.31 462.36 132.27 462.36 119.18 170 72.91 170 91.62 504.69 197.93 504.69 216.63 170 170.37 170 157.31 462.36" fill="#c56a2b" stroke-width="0"/>
  <polygon points="157.75 462.26 132.65 462.26 119.53 169.19 73.15 169.19 91.9 504.69 198.47 504.69 217.22 169.19 170.84 169.19 157.75 462.26" fill="#c56a2b" stroke-width="0"/>
  <polygon points="158.19 462.16 133.03 462.16 119.89 168.38 73.39 168.38 92.19 504.69 199.02 504.69 217.81 168.38 171.32 168.38 158.19 462.16" fill="#c66a2b" stroke-width="0"/>
  <polygon points="158.64 462.05 133.42 462.05 120.24 167.57 73.63 167.57 92.47 504.69 199.56 504.69 218.39 167.57 171.8 167.57 158.64 462.05" fill="#c66b2b" stroke-width="0"/>
  <polygon points="159.08 461.95 133.8 461.95 120.59 166.77 73.87 166.77 92.76 504.69 200.1 504.69 218.98 166.77 172.27 166.77 159.08 461.95" fill="#c66b2a" stroke-width="0"/>
  <polygon points="159.53 461.85 134.18 461.85 120.94 165.96 74.11 165.96 93.04 504.69 200.64 504.69 219.57 165.96 172.75 165.96 159.53 461.85" fill="#c66b2a" stroke-width="0"/>
  <polygon points="159.97 461.75 134.57 461.75 121.29 165.15 74.35 165.15 93.33 504.69 201.19 504.69 220.16 165.15 173.22 165.15 159.97 461.75" fill="#c76b2a" stroke-width="0"/>
  <polygon points="160.41 461.64 134.95 461.64 121.65 164.34 74.59 164.34 93.62 504.69 201.73 504.69 220.74 164.34 173.7 164.34 160.41 461.64" fill="#c76c2a" stroke-width="0"/>
  <polygon points="160.86 461.54 135.33 461.54 122 163.53 74.83 163.53 93.9 504.69 202.27 504.69 221.33 163.53 174.17 163.53 160.86 461.54" fill="#c76c2a" stroke-width="0"/>
  <polygon points="161.3 461.44 135.72 461.44 122.35 162.72 75.07 162.72 94.19 504.69 202.81 504.69 221.92 162.72 174.65 162.72 161.3 461.44" fill="#c76c29" stroke-width="0"/>
  <polygon points="161.75 461.34 136.1 461.34 122.7 161.91 75.31 161.91 94.47 504.69 203.35 504.69 222.51 161.91 175.12 161.91 161.75 461.34" fill="#c76c29" stroke-width="0"/>
  <polygon points="162.19 461.23 136.48 461.23 123.05 161.1 75.55 161.1 94.76 504.69 203.9 504.69 223.09 161.1 175.6 161.1 162.19 461.23" fill="#c86d29" stroke-width="0"/>
  <polygon points="162.63 461.13 136.87 461.13 123.4 160.29 75.79 160.29 95.04 504.69 204.44 504.69 223.68 160.29 176.08 160.29 162.63 461.13" fill="#c86d29" stroke-width="0"/>
  <polygon points="163.08 461.03 137.25 461.03 123.76 159.48 76.03 159.48 95.33 504.69 204.98 504.69 224.27 159.48 176.55 159.48 163.08 461.03" fill="#c86d29" stroke-width="0"/>
  <polygon points="163.52 460.93 137.63 460.93 124.11 158.67 76.27 158.67 95.61 504.69 205.52 504.69 224.86 158.67 177.03 158.67 163.52 460.93" fill="#c86d28" stroke-width="0"/>
  <polygon points="163.97 460.82 138.02 460.82 124.46 157.86 76.51 157.86 95.9 504.69 206.07 504.69 225.44 157.86 177.5 157.86 163.97 460.82" fill="#c96e28" stroke-width="0"/>
  <polygon points="164.41 460.72 138.4 460.72 124.81 157.05 76.75 157.05 96.18 504.69 206.61 504.69 226.03 157.05 177.98 157.05 164.41 460.72" fill="#c96e28" stroke-width="0"/>
  <polygon points="164.85 460.62 138.78 460.62 125.16 156.24 76.99 156.24 96.47 504.69 207.15 504.69 226.62 156.24 178.45 156.24 164.85 460.62" fill="#c96e28" stroke-width="0"/>
  <polygon points="165.3 460.52 139.17 460.52 125.51 155.43 77.23 155.43 96.75 504.69 207.69 504.69 227.21 155.43 178.93 155.43 165.3 460.52" fill="#c96e28" stroke-width="0"/>
  <polygon points="165.74 460.42 139.55 460.42 125.87 154.62 77.47 154.62 97.04 504.69 208.23 504.69 227.79 154.62 179.4 154.62 165.74 460.42" fill="#c96f28" stroke-width="0"/>
  <polygon points="166.19 460.31 139.93 460.31 126.22 153.81 77.71 153.81 97.32 504.69 208.78 504.69 228.38 153.81 179.88 153.81 166.19 460.31" fill="#ca6f27" stroke-width="0"/>
  <polygon points="166.63 460.21 140.32 460.21 126.57 153 77.95 153 97.61 504.69 209.32 504.69 228.97 153 180.36 153 166.63 460.21" fill="#ca6f27" stroke-width="0"/>
  <polygon points="167.07 460.11 140.7 460.11 126.92 152.19 78.19 152.19 97.89 504.69 209.86 504.69 229.55 152.19 180.83 152.19 167.07 460.11" fill="#ca6f27" stroke-width="0"/>
  <polygon points="167.52 460.01 141.08 460.01 127.27 151.38 78.43 151.38 98.18 504.69 210.4 504.69 230.14 151.38 181.31 151.38 167.52 460.01" fill="#ca7027" stroke-width="0"/>
  <polygon points="167.96 459.9 141.47 459.9 127.63 150.57 78.67 150.57 98.46 504.69 210.95 504.69 230.73 150.57 181.78 150.57 167.96 459.9" fill="#cb7027" stroke-width="0"/>
  <polygon points="168.4 459.8 141.85 459.8 127.98 149.77 78.91 149.77 98.75 504.69 211.49 504.69 231.32 149.77 182.26 149.77 168.4 459.8" fill="#cb7026" stroke-width="0"/>
  <polygon points="168.85 459.7 142.24 459.7 128.33 148.96 79.15 148.96 99.03 504.69 212.03 504.69 231.9 148.96 182.73 148.96 168.85 459.7" fill="#cb7026" stroke-width="0"/>
  <polygon points="169.29 459.6 142.62 459.6 128.68 148.15 79.39 148.15 99.32 504.69 212.57 504.69 232.49 148.15 183.21 148.15 169.29 459.6" fill="#cb7126" stroke-width="0"/>
  <polygon points="169.74 459.49 143 459.49 129.03 147.34 79.63 147.34 99.6 504.69 213.12 504.69 233.08 147.34 183.68 147.34 169.74 459.49" fill="#cc7126" stroke-width="0"/>
  <polygon points="170.18 459.39 143.39 459.39 129.38 146.53 79.87 146.53 99.89 504.69 213.66 504.69 233.67 146.53 184.16 146.53 170.18 459.39" fill="#cc7126" stroke-width="0"/>
  <polygon points="170.62 459.29 143.77 459.29 129.74 145.72 80.11 145.72 100.17 504.69 214.2 504.69 234.25 145.72 184.64 145.72 170.62 459.29" fill="#cc7125" stroke-width="0"/>
  <polygon points="171.07 459.19 144.15 459.19 130.09 144.91 80.35 144.91 100.46 504.69 214.74 504.69 234.84 144.91 185.11 144.91 171.07 459.19" fill="#cc7225" stroke-width="0"/>
  <polygon points="171.51 459.08 144.54 459.08 130.44 144.1 80.59 144.1 100.74 504.69 215.28 504.69 235.43 144.1 185.59 144.1 171.51 459.08" fill="#cc7225" stroke-width="0"/>
  <polygon points="171.96 458.98 144.92 458.98 130.79 143.29 80.83 143.29 101.03 504.69 215.83 504.69 236.02 143.29 186.06 143.29 171.96 458.98" fill="#cd7225" stroke-width="0"/>
  <polygon points="172.4 458.88 145.3 458.88 131.14 142.48 81.07 142.48 101.31 504.69 216.37 504.69 236.6 142.48 186.54 142.48 172.4 458.88" fill="#cd7225" stroke-width="0"/>
  <polygon points="172.84 458.78 145.69 458.78 131.49 141.67 81.31 141.67 101.6 504.69 216.91 504.69 237.19 141.67 187.01 141.67 172.84 458.78" fill="#cd7324" stroke-width="0"/>
  <polygon points="173.29 458.67 146.07 458.67 131.85 140.86 81.55 140.86 101.88 504.69 217.45 504.69 237.78 140.86 187.49 140.86 173.29 458.67" fill="#cd7324" stroke-width="0"/>
  <polygon points="173.73 458.57 146.45 458.57 132.2 140.05 81.79 140.05 102.17 504.69 218 504.69 238.37 140.05 187.96 140.05 173.73 458.57" fill="#ce7324" stroke-width="0"/>
  <polygon points="174.18 458.47 146.84 458.47 132.55 139.24 82.03 139.24 102.45 504.69 218.54 504.69 238.95 139.24 188.44 139.24 174.18 458.47" fill="#ce7324" stroke-width="0"/>
  <polygon points="174.62 458.37 147.22 458.37 132.9 138.43 82.27 138.43 102.74 504.69 219.08 504.69 239.54 138.43 188.92 138.43 174.62 458.37" fill="#ce7424" stroke-width="0"/>
  <polygon points="175.06 458.27 147.6 458.27 133.25 137.62 82.51 137.62 103.02 504.69 219.62 504.69 240.13 137.62 189.39 137.62 175.06 458.27" fill="#ce7424" stroke-width="0"/>
  <polygon points="175.51 458.16 147.99 458.16 133.61 136.81 82.75 136.81 103.31 504.69 220.16 504.69 240.72 136.81 189.87 136.81 175.51 458.16" fill="#ce7423" stroke-width="0"/>
  <polygon points="175.95 458.06 148.37 458.06 133.96 136 82.99 136 103.59 504.69 220.71 504.69 241.3 136 190.34 136 175.95 458.06" fill="#cf7423" stroke-width="0"/>
  <polygon points="176.4 457.96 148.75 457.96 134.31 135.19 83.23 135.19 103.88 504.69 221.25 504.69 241.89 135.19 190.82 135.19 176.4 457.96" fill="#cf7523" stroke-width="0"/>
  <polygon points="176.84 457.86 149.14 457.86 134.66 134.38 83.47 134.38 104.16 504.69 221.79 504.69 242.48 134.38 191.29 134.38 176.84 457.86" fill="#cf7523" stroke-width="0"/>
  <polygon points="177.28 457.75 149.52 457.75 135.01 133.57 83.71 133.57 104.45 504.69 222.33 504.69 243.07 133.57 191.77 133.57 177.28 457.75" fill="#cf7523" stroke-width="0"/>
  <polygon points="177.73 457.65 149.9 457.65 135.36 132.76 83.95 132.76 104.73 504.69 222.88 504.69 243.65 132.76 192.25 132.76 177.73 457.65" fill="#d07522" stroke-width="0"/>
  <polygon points="178.17 457.55 150.29 457.55 135.72 131.96 84.19 131.96 105.02 504.69 223.42 504.69 244.24 131.96 192.72 131.96 178.17 457.55" fill="#d07622" stroke-width="0"/>
  <polygon points="178.62 457.45 150.67 457.45 136.07 131.15 84.43 131.15 105.3 504.69 223.96 504.69 244.83 131.15 193.2 131.15 178.62 457.45" fill="#d07622" stroke-width="0"/>
  <polygon points="179.06 457.34 151.05 457.34 136.42 130.34 84.67 130.34 105.59 504.69 224.5 504.69 245.42 130.34 193.67 130.34 179.06 457.34" fill="#d07622" stroke-width="0"/>
  <polygon points="179.5 457.24 151.44 457.24 136.77 129.53 84.91 129.53 105.87 504.69 225.04 504.69 246 129.53 194.15 129.53 179.5 457.24" fill="#d17622" stroke-width="0"/>
  <polygon points="179.95 457.14 151.82 457.14 137.12 128.72 85.15 128.72 106.16 504.69 225.59 504.69 246.59 128.72 194.62 128.72 179.95 457.14" fill="#d17721" stroke-width="0"/>
  <polygon points="180.39 457.04 152.2 457.04 137.47 127.91 85.39 127.91 106.44 504.69 226.13 504.69 247.18 127.91 195.1 127.91 180.39 457.04" fill="#d17721" stroke-width="0"/>
  <polygon points="180.84 456.93 152.59 456.93 137.83 127.1 85.63 127.1 106.73 504.69 226.67 504.69 247.77 127.1 195.57 127.1 180.84 456.93" fill="#d17721" stroke-width="0"/>
  <polygon points="181.28 456.83 152.97 456.83 138.18 126.29 85.87 126.29 107.01 504.69 227.21 504.69 248.35 126.29 196.05 126.29 181.28 456.83" fill="#d17821" stroke-width="0"/>
  <polygon points="181.72 456.73 153.35 456.73 138.53 125.48 86.11 125.48 107.3 504.69 227.76 504.69 248.94 125.48 196.53 125.48 181.72 456.73" fill="#d27821" stroke-width="0"/>
  <polygon points="182.17 456.63 153.74 456.63 138.88 124.67 86.35 124.67 107.58 504.69 228.3 504.69 249.53 124.67 197 124.67 182.17 456.63" fill="#d27820" stroke-width="0"/>
  <polygon points="182.61 456.52 154.12 456.52 139.23 123.86 86.59 123.86 107.87 504.69 228.84 504.69 250.12 123.86 197.48 123.86 182.61 456.52" fill="#d27820" stroke-width="0"/>
  <polygon points="183.06 456.42 154.5 456.42 139.59 123.05 86.83 123.05 108.15 504.69 229.38 504.69 250.7 123.05 197.95 123.05 183.06 456.42" fill="#d27920" stroke-width="0"/>
  <polygon points="183.5 456.32 154.89 456.32 139.94 122.24 87.07 122.24 108.44 504.69 229.92 504.69 251.29 122.24 198.43 122.24 183.5 456.32" fill="#d37920" stroke-width="0"/>
  <polygon points="183.94 456.22 155.27 456.22 140.29 121.43 87.3 121.43 108.73 504.69 230.47 504.69 251.88 121.43 198.9 121.43 183.94 456.22" fill="#d37920" stroke-width="0"/>
  <polygon points="184.39 456.12 155.65 456.12 140.64 120.62 87.54 120.62 109.01 504.69 231.01 504.69 252.47 120.62 199.38 120.62 184.39 456.12" fill="#d3791f" stroke-width="0"/>
  <polygon points="184.83 456.01 156.04 456.01 140.99 119.81 87.78 119.81 109.3 504.69 231.55 504.69 253.05 119.81 199.85 119.81 184.83 456.01" fill="#d37a1f" stroke-width="0"/>
  <polygon points="185.28 455.91 156.42 455.91 141.34 119 88.02 119 109.58 504.69 232.09 504.69 253.64 119 200.33 119 185.28 455.91" fill="#d37a1f" stroke-width="0"/>
  <polygon points="185.72 455.81 156.8 455.81 141.7 118.19 88.26 118.19 109.87 504.69 232.64 504.69 254.23 118.19 200.81 118.19 185.72 455.81" fill="#d47a1f" stroke-width="0"/>
  <polygon points="186.16 455.71 157.19 455.71 142.05 117.38 88.5 117.38 110.15 504.69 233.18 504.69 254.82 117.38 201.28 117.38 186.16 455.71" fill="#d47a1f" stroke-width="0"/>
  <polygon points="186.61 455.6 157.57 455.6 142.4 116.57 88.74 116.57 110.44 504.69 233.72 504.69 255.4 116.57 201.76 116.57 186.61 455.6" fill="#d47b1f" stroke-width="0"/>
  <polygon points="187.05 455.5 157.96 455.5 142.75 115.76 88.98 115.76 110.72 504.69 234.26 504.69 255.99 115.76 202.23 115.76 187.05 455.5" fill="#d47b1e" stroke-width="0"/>
  <polygon points="187.5 455.4 158.34 455.4 143.1 114.95 89.22 114.95 111.01 504.69 234.81 504.69 256.58 114.95 202.71 114.95 187.5 455.4" fill="#d57b1e" stroke-width="0"/>
  <polygon points="187.94 455.3 158.72 455.3 143.45 114.15 89.46 114.15 111.29 504.69 235.35 504.69 257.17 114.15 203.18 114.15 187.94 455.3" fill="#d57b1e" stroke-width="0"/>
  <polygon points="188.38 455.19 159.11 455.19 143.81 113.34 89.7 113.34 111.58 504.69 235.89 504.69 257.75 113.34 203.66 113.34 188.38 455.19" fill="#d57c1e" stroke-width="0"/>
  <polygon points="188.83 455.09 159.49 455.09 144.16 112.53 89.94 112.53 111.86 504.69 236.43 504.69 258.34 112.53 204.13 112.53 188.83 455.09" fill="#d57c1e" stroke-width="0"/>
  <polygon points="189.27 454.99 159.87 454.99 144.51 111.72 90.18 111.72 112.15 504.69 236.97 504.69 258.93 111.72 204.61 111.72 189.27 454.99" fill="#d67c1d" stroke-width="0"/>
  <polygon points="189.72 454.89 160.26 454.89 144.86 110.91 90.42 110.91 112.43 504.69 237.52 504.69 259.52 110.91 205.09 110.91 189.72 454.89" fill="#d67c1d" stroke-width="0"/>
  <polygon points="190.16 454.78 160.64 454.78 145.21 110.1 90.66 110.1 112.72 504.69 238.06 504.69 260.1 110.1 205.56 110.1 190.16 454.78" fill="#d67d1d" stroke-width="0"/>
  <polygon points="190.6 454.68 161.02 454.68 145.57 109.29 90.9 109.29 113 504.69 238.6 504.69 260.69 109.29 206.04 109.29 190.6 454.68" fill="#d67d1d" stroke-width="0"/>
  <polygon points="191.05 454.58 161.41 454.58 145.92 108.48 91.14 108.48 113.29 504.69 239.14 504.69 261.28 108.48 206.51 108.48 191.05 454.58" fill="#d67d1d" stroke-width="0"/>
  <polygon points="191.49 454.48 161.79 454.48 146.27 107.67 91.38 107.67 113.57 504.69 239.69 504.69 261.87 107.67 206.99 107.67 191.49 454.48" fill="#d77d1c" stroke-width="0"/>
  <polygon points="191.94 454.37 162.17 454.37 146.62 106.86 91.62 106.86 113.86 504.69 240.23 504.69 262.45 106.86 207.46 106.86 191.94 454.37" fill="#d77e1c" stroke-width="0"/>
  <polygon points="192.38 454.27 162.56 454.27 146.97 106.05 91.86 106.05 114.14 504.69 240.77 504.69 263.04 106.05 207.94 106.05 192.38 454.27" fill="#d77e1c" stroke-width="0"/>
  <polygon points="192.82 454.17 162.94 454.17 147.32 105.24 92.1 105.24 114.43 504.69 241.31 504.69 263.63 105.24 208.41 105.24 192.82 454.17" fill="#d77e1c" stroke-width="0"/>
  <polygon points="193.27 454.07 163.32 454.07 147.68 104.43 92.34 104.43 114.71 504.69 241.85 504.69 264.22 104.43 208.89 104.43 193.27 454.07" fill="#d87e1c" stroke-width="0"/>
  <polygon points="193.71 453.97 163.71 453.97 148.03 103.62 92.58 103.62 115 504.69 242.4 504.69 264.8 103.62 209.37 103.62 193.71 453.97" fill="#d87f1b" stroke-width="0"/>
  <polygon points="194.16 453.86 164.09 453.86 148.38 102.81 92.82 102.81 115.28 504.69 242.94 504.69 265.39 102.81 209.84 102.81 194.16 453.86" fill="#d87f1b" stroke-width="0"/>
  <polygon points="194.6 453.76 164.47 453.76 148.73 102 93.06 102 115.57 504.69 243.48 504.69 265.98 102 210.32 102 194.6 453.76" fill="#d87f1b" stroke-width="0"/>
  <polygon points="195.04 453.66 164.86 453.66 149.08 101.19 93.3 101.19 115.85 504.69 244.02 504.69 266.57 101.19 210.79 101.19 195.04 453.66" fill="#d97f1b" stroke-width="0"/>
  <polygon points="195.49 453.56 165.24 453.56 149.43 100.38 93.54 100.38 116.14 504.69 244.57 504.69 267.15 100.38 211.27 100.38 195.49 453.56" fill="#d9801b" stroke-width="0"/>
  <polygon points="195.93 453.45 165.62 453.45 149.79 99.57 93.78 99.57 116.42 504.69 245.11 504.69 267.74 99.57 211.74 99.57 195.93 453.45" fill="#d9801b" stroke-width="0"/>
  <polygon points="196.38 453.35 166.01 453.35 150.14 98.76 94.02 98.76 116.71 504.69 245.65 504.69 268.33 98.76 212.22 98.76 196.38 453.35" fill="#d9801a" stroke-width="0"/>
  <polygon points="196.82 453.25 166.39 453.25 150.49 97.95 94.26 97.95 116.99 504.69 246.19 504.69 268.92 97.95 212.69 97.95 196.82 453.25" fill="#d9801a" stroke-width="0"/>
  <polygon points="197.26 453.15 166.77 453.15 150.84 97.14 94.5 97.14 117.28 504.69 246.73 504.69 269.5 97.14 213.17 97.14 197.26 453.15" fill="#da811a" stroke-width="0"/>
  <polygon points="197.71 453.04 167.16 453.04 151.19 96.34 94.74 96.34 117.56 504.69 247.28 504.69 270.09 96.34 213.65 96.34 197.71 453.04" fill="#da811a" stroke-width="0"/>
  <polygon points="198.15 452.94 167.54 452.94 151.55 95.53 94.98 95.53 117.85 504.69 247.82 504.69 270.68 95.53 214.12 95.53 198.15 452.94" fill="#da811a" stroke-width="0"/>
  <polygon points="198.6 452.84 167.92 452.84 151.9 94.72 95.22 94.72 118.13 504.69 248.36 504.69 271.27 94.72 214.6 94.72 198.6 452.84" fill="#da8119" stroke-width="0"/>
  <polygon points="199.04 452.74 168.31 452.74 152.25 93.91 95.46 93.91 118.42 504.69 248.9 504.69 271.85 93.91 215.07 93.91 199.04 452.74" fill="#db8219" stroke-width="0"/>
  <polygon points="199.48 452.63 168.69 452.63 152.6 93.1 95.7 93.1 118.7 504.69 249.45 504.69 272.44 93.1 215.55 93.1 199.48 452.63" fill="#db8219" stroke-width="0"/>
  <polygon points="199.93 452.53 169.07 452.53 152.95 92.29 95.94 92.29 118.99 504.69 249.99 504.69 273.03 92.29 216.02 92.29 199.93 452.53" fill="#db8219" stroke-width="0"/>
  <polygon points="200.37 452.43 169.46 452.43 153.3 91.48 96.18 91.48 119.27 504.69 250.53 504.69 273.62 91.48 216.5 91.48 200.37 452.43" fill="#db8219" stroke-width="0"/>
  <polygon points="200.82 452.33 169.84 452.33 153.66 90.67 96.42 90.67 119.56 504.69 251.07 504.69 274.2 90.67 216.97 90.67 200.82 452.33" fill="#db8318" stroke-width="0"/>
  <polygon points="201.26 452.22 170.22 452.22 154.01 89.86 96.66 89.86 119.84 504.69 251.61 504.69 274.79 89.86 217.45 89.86 201.26 452.22" fill="#dc8318" stroke-width="0"/>
  <polygon points="201.7 452.12 170.61 452.12 154.36 89.05 96.9 89.05 120.13 504.69 252.16 504.69 275.38 89.05 217.93 89.05 201.7 452.12" fill="#dc8318" stroke-width="0"/>
  <polygon points="202.15 452.02 170.99 452.02 154.71 88.24 97.14 88.24 120.41 504.69 252.7 504.69 275.97 88.24 218.4 88.24 202.15 452.02" fill="#dc8318" stroke-width="0"/>
  <polygon points="202.59 451.92 171.37 451.92 155.06 87.43 97.38 87.43 120.7 504.69 253.24 504.69 276.55 87.43 218.88 87.43 202.59 451.92" fill="#dc8418" stroke-width="0"/>
  <polygon points="203.04 451.82 171.76 451.82 155.41 86.62 97.62 86.62 120.98 504.69 253.78 504.69 277.14 86.62 219.35 86.62 203.04 451.82" fill="#dd8417" stroke-width="0"/>
  <polygon points="203.48 451.71 172.14 451.71 155.77 85.81 97.86 85.81 121.27 504.69 254.33 504.69 277.73 85.81 219.83 85.81 203.48 451.71" fill="#dd8417" stroke-width="0"/>
  <polygon points="203.92 451.61 172.52 451.61 156.12 85 98.1 85 121.55 504.69 254.87 504.69 278.32 85 220.3 85 203.92 451.61" fill="#dd8417" stroke-width="0"/>
  <polygon points="204.37 451.51 172.91 451.51 156.47 84.19 98.34 84.19 121.84 504.69 255.41 504.69 278.9 84.19 220.78 84.19 204.37 451.51" fill="#dd8517" stroke-width="0"/>
  <polygon points="204.81 451.41 173.29 451.41 156.82 83.38 98.58 83.38 122.12 504.69 255.95 504.69 279.49 83.38 221.26 83.38 204.81 451.41" fill="#de8517" stroke-width="0"/>
  <polygon points="205.26 451.3 173.67 451.3 157.17 82.57 98.82 82.57 122.41 504.69 256.49 504.69 280.08 82.57 221.73 82.57 205.26 451.3" fill="#de8517" stroke-width="0"/>
  <polygon points="205.7 451.2 174.06 451.2 157.53 81.76 99.06 81.76 122.69 504.69 257.04 504.69 280.67 81.76 222.21 81.76 205.7 451.2" fill="#de8516" stroke-width="0"/>
  <polygon points="206.14 451.1 174.44 451.1 157.88 80.95 99.3 80.95 122.98 504.69 257.58 504.69 281.25 80.95 222.68 80.95 206.14 451.1" fill="#de8616" stroke-width="0"/>
  <polygon points="206.59 451 174.83 451 158.23 80.14 99.54 80.14 123.26 504.69 258.12 504.69 281.84 80.14 223.16 80.14 206.59 451" fill="#de8616" stroke-width="0"/>
  <polygon points="207.03 450.89 175.21 450.89 158.58 79.33 99.78 79.33 123.55 504.69 258.66 504.69 282.43 79.33 223.63 79.33 207.03 450.89" fill="#df8616" stroke-width="0"/>
  <polygon points="207.47 450.79 175.59 450.79 158.93 78.53 100.02 78.53 123.84 504.69 259.21 504.69 283.02 78.53 224.11 78.53 207.47 450.79" fill="#df8616" stroke-width="0"/>
  <polygon points="207.92 450.69 175.98 450.69 159.28 77.72 100.26 77.72 124.12 504.69 259.75 504.69 283.6 77.72 224.58 77.72 207.92 450.69" fill="#df8715" stroke-width="0"/>
  <polygon points="208.36 450.59 176.36 450.59 159.64 76.91 100.5 76.91 124.41 504.69 260.29 504.69 284.19 76.91 225.06 76.91 208.36 450.59" fill="#df8715" stroke-width="0"/>
  <polygon points="208.81 450.48 176.74 450.48 159.99 76.1 100.74 76.1 124.69 504.69 260.83 504.69 284.78 76.1 225.54 76.1 208.81 450.48" fill="#e08715" stroke-width="0"/>
  <polygon points="209.25 450.38 177.13 450.38 160.34 75.29 100.98 75.29 124.98 504.69 261.38 504.69 285.36 75.29 226.01 75.29 209.25 450.38" fill="#e08715" stroke-width="0"/>
  <polygon points="209.69 450.28 177.51 450.28 160.69 74.48 101.22 74.48 125.26 504.69 261.92 504.69 285.95 74.48 226.49 74.48 209.69 450.28" fill="#e08815" stroke-width="0"/>
  <polygon points="210.14 450.18 177.89 450.18 161.04 73.67 101.46 73.67 125.55 504.69 262.46 504.69 286.54 73.67 226.96 73.67 210.14 450.18" fill="#e08814" stroke-width="0"/>
  <polygon points="210.58 450.07 178.28 450.07 161.39 72.86 101.7 72.86 125.83 504.69 263 504.69 287.13 72.86 227.44 72.86 210.58 450.07" fill="#e08814" stroke-width="0"/>
  <polygon points="211.03 449.97 178.66 449.97 161.75 72.05 101.94 72.05 126.12 504.69 263.54 504.69 287.71 72.05 227.91 72.05 211.03 449.97" fill="#e18814" stroke-width="0"/>
  <polygon points="211.47 449.87 179.04 449.87 162.1 71.24 102.18 71.24 126.4 504.69 264.09 504.69 288.3 71.24 228.39 71.24 211.47 449.87" fill="#e18914" stroke-width="0"/>
  <polygon points="211.91 449.77 179.43 449.77 162.45 70.43 102.42 70.43 126.69 504.69 264.63 504.69 288.89 70.43 228.86 70.43 211.91 449.77" fill="#e18914" stroke-width="0"/>
  <polygon points="212.36 449.67 179.81 449.67 162.8 69.62 102.66 69.62 126.97 504.69 265.17 504.69 289.48 69.62 229.34 69.62 212.36 449.67" fill="#e18913" stroke-width="0"/>
  <polygon points="212.8 449.56 180.19 449.56 163.15 68.81 102.9 68.81 127.26 504.69 265.71 504.69 290.06 68.81 229.82 68.81 212.8 449.56" fill="#e28913" stroke-width="0"/>
  <polygon points="213.25 449.46 180.58 449.46 163.51 68 103.13 68 127.54 504.69 266.26 504.69 290.65 68 230.29 68 213.25 449.46" fill="#e28a13" stroke-width="0"/>
  <polygon points="213.69 449.36 180.96 449.36 163.86 67.19 103.37 67.19 127.83 504.69 266.8 504.69 291.24 67.19 230.77 67.19 213.69 449.36" fill="#e28a13" stroke-width="0"/>
  <polygon points="214.13 449.26 181.34 449.26 164.21 66.38 103.61 66.38 128.11 504.69 267.34 504.69 291.83 66.38 231.24 66.38 214.13 449.26" fill="#e28a13" stroke-width="0"/>
  <polygon points="214.58 449.15 181.73 449.15 164.56 65.57 103.85 65.57 128.4 504.69 267.88 504.69 292.41 65.57 231.72 65.57 214.58 449.15" fill="#e38a12" stroke-width="0"/>
  <polygon points="215.02 449.05 182.11 449.05 164.91 64.76 104.09 64.76 128.68 504.69 268.42 504.69 293 64.76 232.19 64.76 215.02 449.05" fill="#e38b12" stroke-width="0"/>
  <polygon points="215.47 448.95 182.49 448.95 165.26 63.95 104.33 63.95 128.97 504.69 268.97 504.69 293.59 63.95 232.67 63.95 215.47 448.95" fill="#e38b12" stroke-width="0"/>
  <polygon points="215.91 448.85 182.88 448.85 165.62 63.14 104.57 63.14 129.25 504.69 269.51 504.69 294.18 63.14 233.14 63.14 215.91 448.85" fill="#e38b12" stroke-width="0"/>
  <polygon points="216.35 448.74 183.26 448.74 165.97 62.33 104.81 62.33 129.54 504.69 270.05 504.69 294.76 62.33 233.62 62.33 216.35 448.74" fill="#e38c12" stroke-width="0"/>
  <polygon points="216.8 448.64 183.64 448.64 166.32 61.53 105.05 61.53 129.82 504.69 270.59 504.69 295.35 61.53 234.1 61.53 216.8 448.64" fill="#e48c12" stroke-width="0"/>
  <polygon points="217.24 448.54 184.03 448.54 166.67 60.72 105.29 60.72 130.11 504.69 271.14 504.69 295.94 60.72 234.57 60.72 217.24 448.54" fill="#e48c11" stroke-width="0"/>
  <polygon points="217.69 448.44 184.41 448.44 167.02 59.91 105.53 59.91 130.39 504.69 271.68 504.69 296.53 59.91 235.05 59.91 217.69 448.44" fill="#e48c11" stroke-width="0"/>
  <polygon points="218.13 448.33 184.79 448.33 167.37 59.1 105.77 59.1 130.68 504.69 272.22 504.69 297.11 59.1 235.52 59.1 218.13 448.33" fill="#e48d11" stroke-width="0"/>
  <polygon points="218.57 448.23 185.18 448.23 167.73 58.29 106.01 58.29 130.96 504.69 272.76 504.69 297.7 58.29 236 58.29 218.57 448.23" fill="#e58d11" stroke-width="0"/>
  <polygon points="219.02 448.13 185.56 448.13 168.08 57.48 106.25 57.48 131.25 504.69 273.3 504.69 298.29 57.48 236.47 57.48 219.02 448.13" fill="#e58d11" stroke-width="0"/>
  <polygon points="219.46 448.03 185.94 448.03 168.43 56.67 106.49 56.67 131.53 504.69 273.85 504.69 298.88 56.67 236.95 56.67 219.46 448.03" fill="#e58d10" stroke-width="0"/>
  <polygon points="219.91 447.92 186.33 447.92 168.78 55.86 106.73 55.86 131.82 504.69 274.39 504.69 299.46 55.86 237.42 55.86 219.91 447.92" fill="#e58e10" stroke-width="0"/>
  <polygon points="220.35 447.82 186.71 447.82 169.13 55.05 106.97 55.05 132.1 504.69 274.93 504.69 300.05 55.05 237.9 55.05 220.35 447.82" fill="#e68e10" stroke-width="0"/>
  <polygon points="220.79 447.72 187.09 447.72 169.49 54.24 107.21 54.24 132.39 504.69 275.47 504.69 300.64 54.24 238.38 54.24 220.79 447.72" fill="#e68e10" stroke-width="0"/>
  <polygon points="221.24 447.62 187.48 447.62 169.84 53.43 107.45 53.43 132.67 504.69 276.02 504.69 301.23 53.43 238.85 53.43 221.24 447.62" fill="#e68e10" stroke-width="0"/>
  <polygon points="221.68 447.52 187.86 447.52 170.19 52.62 107.69 52.62 132.96 504.69 276.56 504.69 301.81 52.62 239.33 52.62 221.68 447.52" fill="#e68f0f" stroke-width="0"/>
  <polygon points="222.13 447.41 188.24 447.41 170.54 51.81 107.93 51.81 133.24 504.69 277.1 504.69 302.4 51.81 239.8 51.81 222.13 447.41" fill="#e68f0f" stroke-width="0"/>
  <polygon points="222.57 447.31 188.63 447.31 170.89 51 108.17 51 133.53 504.69 277.64 504.69 302.99 51 240.28 51 222.57 447.31" fill="#e78f0f" stroke-width="0"/>
  <polygon points="223.01 447.21 189.01 447.21 171.24 50.19 108.41 50.19 133.81 504.69 278.18 504.69 303.58 50.19 240.75 50.19 223.01 447.21" fill="#e78f0f" stroke-width="0"/>
  <polygon points="223.46 447.11 189.39 447.11 171.6 49.38 108.65 49.38 134.1 504.69 278.73 504.69 304.16 49.38 241.23 49.38 223.46 447.11" fill="#e7900f" stroke-width="0"/>
  <polygon points="223.9 447 189.78 447 171.95 48.57 108.89 48.57 134.38 504.69 279.27 504.69 304.75 48.57 241.7 48.57 223.9 447" fill="#e7900e" stroke-width="0"/>
  <polygon points="224.35 446.9 190.16 446.9 172.3 47.76 109.13 47.76 134.67 504.69 279.81 504.69 305.34 47.76 242.18 47.76 224.35 446.9" fill="#e8900e" stroke-width="0"/>
  <polygon points="224.79 446.8 190.55 446.8 172.65 46.95 109.37 46.95 134.95 504.69 280.35 504.69 305.93 46.95 242.66 46.95 224.79 446.8" fill="#e8900e" stroke-width="0"/>
  <polygon points="225.23 446.7 190.93 446.7 173 46.14 109.61 46.14 135.24 504.69 280.9 504.69 306.51 46.14 243.13 46.14 225.23 446.7" fill="#e8910e" stroke-width="0"/>
  <polygon points="225.68 446.59 191.31 446.59 173.35 45.33 109.85 45.33 135.52 504.69 281.44 504.69 307.1 45.33 243.61 45.33 225.68 446.59" fill="#e8910e" stroke-width="0"/>
  <polygon points="226.12 446.49 191.7 446.49 173.71 44.52 110.09 44.52 135.81 504.69 281.98 504.69 307.69 44.52 244.08 44.52 226.12 446.49" fill="#e8910e" stroke-width="0"/>
  <polygon points="226.57 446.39 192.08 446.39 174.06 43.72 110.33 43.72 136.09 504.69 282.52 504.69 308.28 43.72 244.56 43.72 226.57 446.39" fill="#e9910d" stroke-width="0"/>
  <polygon points="227.01 446.29 192.46 446.29 174.41 42.91 110.57 42.91 136.38 504.69 283.06 504.69 308.86 42.91 245.03 42.91 227.01 446.29" fill="#e9920d" stroke-width="0"/>
  <polygon points="227.45 446.18 192.85 446.18 174.76 42.1 110.81 42.1 136.66 504.69 283.61 504.69 309.45 42.1 245.51 42.1 227.45 446.18" fill="#e9920d" stroke-width="0"/>
  <polygon points="227.9 446.08 193.23 446.08 175.11 41.29 111.05 41.29 136.95 504.69 284.15 504.69 310.04 41.29 245.98 41.29 227.9 446.08" fill="#e9920d" stroke-width="0"/>
  <polygon points="228.34 445.98 193.61 445.98 175.47 40.48 111.29 40.48 137.23 504.69 284.69 504.69 310.63 40.48 246.46 40.48 228.34 445.98" fill="#ea920d" stroke-width="0"/>
  <polygon points="228.79 445.88 194 445.88 175.82 39.67 111.53 39.67 137.52 504.69 285.23 504.69 311.21 39.67 246.94 39.67 228.79 445.88" fill="#ea930c" stroke-width="0"/>
  <polygon points="229.23 445.77 194.38 445.77 176.17 38.86 111.77 38.86 137.8 504.69 285.78 504.69 311.8 38.86 247.41 38.86 229.23 445.77" fill="#ea930c" stroke-width="0"/>
  <polygon points="229.67 445.67 194.76 445.67 176.52 38.05 112.01 38.05 138.09 504.69 286.32 504.69 312.39 38.05 247.89 38.05 229.67 445.67" fill="#ea930c" stroke-width="0"/>
  <polygon points="230.12 445.57 195.15 445.57 176.87 37.24 112.25 37.24 138.37 504.69 286.86 504.69 312.98 37.24 248.36 37.24 230.12 445.57" fill="#eb930c" stroke-width="0"/>
  <polygon points="230.56 445.47 195.53 445.47 177.22 36.43 112.49 36.43 138.66 504.69 287.4 504.69 313.56 36.43 248.84 36.43 230.56 445.47" fill="#eb940c" stroke-width="0"/>
  <polygon points="231.01 445.37 195.91 445.37 177.58 35.62 112.73 35.62 138.94 504.69 287.95 504.69 314.15 35.62 249.31 35.62 231.01 445.37" fill="#eb940b" stroke-width="0"/>
  <polygon points="231.45 445.26 196.3 445.26 177.93 34.81 112.97 34.81 139.23 504.69 288.49 504.69 314.74 34.81 249.79 34.81 231.45 445.26" fill="#eb940b" stroke-width="0"/>
  <polygon points="231.89 445.16 196.68 445.16 178.28 34 113.21 34 139.52 504.69 289.03 504.69 315.33 34 250.27 34 231.89 445.16" fill="#eb940b" stroke-width="0"/>
  <polygon points="232.34 445.06 197.06 445.06 178.63 33.19 113.45 33.19 139.8 504.69 289.57 504.69 315.91 33.19 250.74 33.19 232.34 445.06" fill="#ec950b" stroke-width="0"/>
  <polygon points="232.78 444.96 197.45 444.96 178.98 32.38 113.69 32.38 140.09 504.69 290.11 504.69 316.5 32.38 251.22 32.38 232.78 444.96" fill="#ec950b" stroke-width="0"/>
  <polygon points="233.23 444.85 197.83 444.85 179.33 31.57 113.93 31.57 140.37 504.69 290.66 504.69 317.09 31.57 251.69 31.57 233.23 444.85" fill="#ec950a" stroke-width="0"/>
  <polygon points="233.67 444.75 198.21 444.75 179.69 30.76 114.17 30.76 140.66 504.69 291.2 504.69 317.68 30.76 252.17 30.76 233.67 444.75" fill="#ec950a" stroke-width="0"/>
  <polygon points="234.11 444.65 198.6 444.65 180.04 29.95 114.41 29.95 140.94 504.69 291.74 504.69 318.26 29.95 252.64 29.95 234.11 444.65" fill="#ed960a" stroke-width="0"/>
  <polygon points="234.56 444.55 198.98 444.55 180.39 29.14 114.65 29.14 141.23 504.69 292.28 504.69 318.85 29.14 253.12 29.14 234.56 444.55" fill="#ed960a" stroke-width="0"/>
  <polygon points="235 444.44 199.36 444.44 180.74 28.33 114.89 28.33 141.51 504.69 292.83 504.69 319.44 28.33 253.59 28.33 235 444.44" fill="#ed960a" stroke-width="0"/>
  <polygon points="235.45 444.34 199.75 444.34 181.09 27.52 115.13 27.52 141.8 504.69 293.37 504.69 320.03 27.52 254.07 27.52 235.45 444.34" fill="#ed960a" stroke-width="0"/>
  <polygon points="235.89 444.24 200.13 444.24 181.45 26.71 115.37 26.71 142.08 504.69 293.91 504.69 320.61 26.71 254.55 26.71 235.89 444.24" fill="#ed9709" stroke-width="0"/>
  <polygon points="236.33 444.14 200.51 444.14 181.8 25.91 115.61 25.91 142.37 504.69 294.45 504.69 321.2 25.91 255.02 25.91 236.33 444.14" fill="#ee9709" stroke-width="0"/>
  <polygon points="236.78 444.03 200.9 444.03 182.15 25.1 115.85 25.1 142.65 504.69 294.99 504.69 321.79 25.1 255.5 25.1 236.78 444.03" fill="#ee9709" stroke-width="0"/>
  <polygon points="237.22 443.93 201.28 443.93 182.5 24.29 116.09 24.29 142.94 504.69 295.54 504.69 322.38 24.29 255.97 24.29 237.22 443.93" fill="#ee9709" stroke-width="0"/>
  <polygon points="237.67 443.83 201.66 443.83 182.85 23.48 116.33 23.48 143.22 504.69 296.08 504.69 322.96 23.48 256.45 23.48 237.67 443.83" fill="#ee9809" stroke-width="0"/>
  <polygon points="238.11 443.73 202.05 443.73 183.2 22.67 116.57 22.67 143.51 504.69 296.62 504.69 323.55 22.67 256.92 22.67 238.11 443.73" fill="#ef9808" stroke-width="0"/>
  <polygon points="238.55 443.62 202.43 443.62 183.56 21.86 116.81 21.86 143.79 504.69 297.16 504.69 324.14 21.86 257.4 21.86 238.55 443.62" fill="#ef9808" stroke-width="0"/>
  <polygon points="239 443.52 202.81 443.52 183.91 21.05 117.05 21.05 144.08 504.69 297.71 504.69 324.73 21.05 257.87 21.05 239 443.52" fill="#ef9808" stroke-width="0"/>
  <polygon points="239.44 443.42 203.2 443.42 184.26 20.24 117.29 20.24 144.36 504.69 298.25 504.69 325.31 20.24 258.35 20.24 239.44 443.42" fill="#ef9908" stroke-width="0"/>
  <polygon points="239.89 443.32 203.58 443.32 184.61 19.43 117.53 19.43 144.65 504.69 298.79 504.69 325.9 19.43 258.83 19.43 239.89 443.32" fill="#f09908" stroke-width="0"/>
  <polygon points="240.33 443.22 203.96 443.22 184.96 18.62 117.77 18.62 144.93 504.69 299.33 504.69 326.49 18.62 259.3 18.62 240.33 443.22" fill="#f09907" stroke-width="0"/>
  <polygon points="240.77 443.11 204.35 443.11 185.31 17.81 118.01 17.81 145.22 504.69 299.87 504.69 327.08 17.81 259.78 17.81 240.77 443.11" fill="#f09907" stroke-width="0"/>
  <polygon points="241.22 443.01 204.73 443.01 185.67 17 118.25 17 145.5 504.69 300.42 504.69 327.66 17 260.25 17 241.22 443.01" fill="#f09a07" stroke-width="0"/>
  <polygon points="241.66 442.91 205.11 442.91 186.02 16.19 118.49 16.19 145.79 504.69 300.96 504.69 328.25 16.19 260.73 16.19 241.66 442.91" fill="#f09a07" stroke-width="0"/>
  <polygon points="242.11 442.81 205.5 442.81 186.37 15.38 118.73 15.38 146.07 504.69 301.5 504.69 328.84 15.38 261.2 15.38 242.11 442.81" fill="#f19a07" stroke-width="0"/>
  <polygon points="242.55 442.7 205.88 442.7 186.72 14.57 118.96 14.57 146.36 504.69 302.04 504.69 329.43 14.57 261.68 14.57 242.55 442.7" fill="#f19a06" stroke-width="0"/>
  <polygon points="242.99 442.6 206.26 442.6 187.07 13.76 119.2 13.76 146.64 504.69 302.59 504.69 330.01 13.76 262.15 13.76 242.99 442.6" fill="#f19b06" stroke-width="0"/>
  <polygon points="243.44 442.5 206.65 442.5 187.43 12.95 119.44 12.95 146.93 504.69 303.13 504.69 330.6 12.95 262.63 12.95 243.44 442.5" fill="#f19b06" stroke-width="0"/>
  <polygon points="243.88 442.4 207.03 442.4 187.78 12.14 119.68 12.14 147.21 504.69 303.67 504.69 331.19 12.14 263.11 12.14 243.88 442.4" fill="#f29b06" stroke-width="0"/>
  <polygon points="244.33 442.29 207.42 442.29 188.13 11.33 119.92 11.33 147.5 504.69 304.21 504.69 331.78 11.33 263.58 11.33 244.33 442.29" fill="#f29b06" stroke-width="0"/>
  <polygon points="244.77 442.19 207.8 442.19 188.48 10.52 120.16 10.52 147.78 504.69 304.75 504.69 332.36 10.52 264.06 10.52 244.77 442.19" fill="#f29c05" stroke-width="0"/>
  <polygon points="245.21 442.09 208.18 442.09 188.83 9.71 120.4 9.71 148.07 504.69 305.3 504.69 332.95 9.71 264.53 9.71 245.21 442.09" fill="#f29c05" stroke-width="0"/>
  <polygon points="245.66 441.99 208.57 441.99 189.18 8.9 120.64 8.9 148.35 504.69 305.84 504.69 333.54 8.9 265.01 8.9 245.66 441.99" fill="#f29c05" stroke-width="0"/>
  <polygon points="246.1 441.88 208.95 441.88 189.54 8.1 120.88 8.1 148.64 504.69 306.38 504.69 334.13 8.1 265.48 8.1 246.1 441.88" fill="#f39c05" stroke-width="0"/>
  <polygon points="246.54 441.78 209.33 441.78 189.89 7.29 121.12 7.29 148.92 504.69 306.92 504.69 334.71 7.29 265.96 7.29 246.54 441.78" fill="#f39d05" stroke-width="0"/>
  <polygon points="246.99 441.68 209.72 441.68 190.24 6.48 121.36 6.48 149.21 504.69 307.47 504.69 335.3 6.48 266.43 6.48 246.99 441.68" fill="#f39d05" stroke-width="0"/>
  <polygon points="247.43 441.58 210.1 441.58 190.59 5.67 121.6 5.67 149.49 504.69 308.01 504.69 335.89 5.67 266.91 5.67 247.43 441.58" fill="#f39d04" stroke-width="0"/>
  <polygon points="247.88 441.47 210.48 441.47 190.94 4.86 121.84 4.86 149.78 504.69 308.55 504.69 336.48 4.86 267.39 4.86 247.88 441.47" fill="#f49d04" stroke-width="0"/>
  <polygon points="248.32 441.37 210.87 441.37 191.29 4.05 122.08 4.05 150.06 504.69 309.09 504.69 337.06 4.05 267.86 4.05 248.32 441.37" fill="#f49e04" stroke-width="0"/>
  <polygon points="248.76 441.27 211.25 441.27 191.65 3.24 122.32 3.24 150.35 504.69 309.63 504.69 337.65 3.24 268.34 3.24 248.76 441.27" fill="#f49e04" stroke-width="0"/>
  <polygon points="249.21 441.17 211.63 441.17 192 2.43 122.56 2.43 150.63 504.69 310.18 504.69 338.24 2.43 268.81 2.43 249.21 441.17" fill="#f49e04" stroke-width="0"/>
  <polygon points="249.65 441.07 212.02 441.07 192.35 1.62 122.8 1.62 150.92 504.69 310.72 504.69 338.83 1.62 269.29 1.62 249.65 441.07" fill="#f59e03" stroke-width="0"/>
  <polygon points="250.1 440.96 212.4 440.96 192.7 .81 123.04 .81 151.2 504.69 311.26 504.69 339.41 .81 269.76 .81 250.1 440.96" fill="#f59f03" stroke-width="0"/>
  <polygon points="250.54 440.86 212.78 440.86 193.05 0 123.28 0 151.49 504.69 311.8 504.69 340 0 270.24 0 250.54 440.86" fill="#f59f03" stroke-width="0"/>
</svg>