<svg width="321" height="57" viewBox="0 0 321 57" fill="white" xmlns="http://www.w3.org/2000/svg">
<path d="M0 24.88H3.67V7.12999L0 8.45999V4.99999L3.92 3.48999H7.02V24.87H9.83V27.97H0V24.87V24.88Z"/>
<path d="M11.34 12.24C11.1 11.93 10.98 11.46 10.98 10.84V8.85999C10.98 8.18999 11.12 7.68999 11.41 7.36999C11.7 7.04999 12.17 6.87999 12.81 6.87999H13.85V5.90999C13.85 5.61999 13.78 5.40999 13.65 5.25999C13.52 5.11999 13.28 5.03999 12.95 5.03999H11.19V3.48999H13.35C13.85 3.48999 14.27 3.56999 14.59 3.71999C14.91 3.87999 15.15 4.11999 15.31 4.43999C15.47 4.75999 15.54 5.18999 15.54 5.71999V12.7H14.06V11.19H14.2C14.15 11.67 14 12.04 13.73 12.31C13.46 12.58 13.13 12.71 12.72 12.71H12.47C11.94 12.71 11.56 12.55 11.32 12.24H11.34ZM11.05 13.43H15.55V15.05H11.05V13.43ZM13.73 10.98C13.81 10.88 13.85 10.73 13.85 10.51V8.30999H13.17C12.95 8.30999 12.8 8.34999 12.72 8.43999C12.64 8.51999 12.59 8.66999 12.59 8.88999V10.55C12.59 10.77 12.63 10.92 12.72 11C12.8 11.08 12.92 11.13 13.06 11.13H13.35C13.52 11.13 13.64 11.08 13.73 10.99V10.98Z"/>
<path d="M23.77 3.48999H28.81L31.73 26.57H30.15L33.03 3.48999H38V27.97H34.9V4.92999H35.4L32.37 27.79H29.38L26.39 4.92999H26.86V27.97H23.76V3.48999H23.77Z"/>
<path d="M41.62 27.76C41.12 27.5 40.73 27.07 40.45 26.48C40.17 25.89 40.04 25.11 40.04 24.12V7.33999C40.04 6.35999 40.18 5.56999 40.45 4.97999C40.73 4.38999 41.12 3.96999 41.62 3.69999C42.12 3.42999 42.78 3.29999 43.6 3.29999H46.77C47.59 3.29999 48.25 3.42999 48.77 3.69999C49.29 3.95999 49.68 4.38999 49.94 4.97999C50.2 5.56999 50.34 6.35999 50.34 7.33999V24.12C50.34 25.1 50.21 25.89 49.94 26.48C49.68 27.07 49.29 27.49 48.77 27.76C48.25 28.02 47.59 28.16 46.77 28.16H43.6C42.78 28.16 42.12 28.03 41.62 27.76ZM46.52 24.91C46.66 24.84 46.77 24.72 46.84 24.55C46.91 24.38 46.95 24.15 46.95 23.87V7.59999C46.95 7.30999 46.91 7.07999 46.84 6.91999C46.77 6.74999 46.66 6.62999 46.52 6.55999C46.38 6.48999 46.18 6.44999 45.94 6.44999H44.43C44.19 6.44999 44 6.48999 43.85 6.55999C43.7 6.62999 43.6 6.74999 43.53 6.91999C43.46 7.08999 43.42 7.31999 43.42 7.59999V23.87C43.42 24.16 43.46 24.39 43.53 24.55C43.6 24.72 43.71 24.84 43.85 24.91C43.99 24.98 44.19 25.02 44.43 25.02H45.94C46.18 25.02 46.37 24.98 46.52 24.91Z"/>
<path d="M53.88 27.76C53.36 27.5 52.97 27.08 52.71 26.5C52.45 25.92 52.31 25.14 52.31 24.16V19.52H55.59V24.06C55.59 24.3 55.62 24.49 55.68 24.64C55.74 24.78 55.83 24.89 55.95 24.95C56.07 25.01 56.25 25.04 56.49 25.04H58.11C58.45 25.04 58.68 24.97 58.81 24.82C58.94 24.67 59.01 24.42 59.01 24.06V18.3C59.01 18.04 58.97 17.82 58.9 17.65C58.83 17.48 58.72 17.36 58.58 17.27C58.44 17.19 58.23 17.14 57.97 17.14H55.88C55.02 17.14 54.31 17.01 53.77 16.76C53.23 16.51 52.84 16.11 52.6 15.57C52.36 15.03 52.24 14.3 52.24 13.39V7.31C52.24 6.35 52.38 5.58 52.65 4.99C52.93 4.4 53.32 3.98 53.82 3.71C54.32 3.45 54.98 3.31 55.8 3.31H58.68C59.47 3.31 60.13 3.44 60.64 3.71C61.16 3.97 61.55 4.4 61.83 4.99C62.11 5.58 62.24 6.35 62.24 7.31V11.74H58.96V7.46C58.96 7.12 58.89 6.87 58.76 6.7C58.63 6.53 58.39 6.45 58.06 6.45H56.44C56.25 6.45 56.09 6.48 55.95 6.54C55.82 6.6 55.72 6.71 55.65 6.86C55.58 7.02 55.54 7.23 55.54 7.49V12.93C55.54 13.36 55.62 13.66 55.77 13.83C55.93 14 56.21 14.08 56.62 14.08H58.71C59.6 14.08 60.31 14.21 60.83 14.46C61.36 14.71 61.75 15.11 62 15.67C62.25 16.22 62.38 16.95 62.38 17.87V24.17C62.38 25.13 62.24 25.9 61.97 26.49C61.69 27.08 61.3 27.5 60.78 27.77C60.26 28.04 59.61 28.17 58.82 28.17H55.87C55.05 28.17 54.39 28.04 53.87 27.77L53.88 27.76Z"/>
<path d="M67.32 6.61999H63.83V3.48999H74.23V6.61999H70.67V27.97H67.32V6.61999Z"/>
<path d="M75.96 3.48999H82.26C83.08 3.48999 83.77 3.62999 84.33 3.89999C84.89 4.17999 85.31 4.59999 85.57 5.15999C85.83 5.71999 85.97 6.43999 85.97 7.29999V15.22C85.97 15.8 85.92 16.3 85.81 16.73C85.7 17.16 85.54 17.51 85.32 17.77C85.1 18.03 84.83 18.25 84.49 18.42L86.15 27.96H82.77L81.33 18.89H79.35V27.96H75.97V3.48999H75.96ZM82.2 15.7C82.36 15.63 82.46 15.51 82.52 15.34C82.58 15.17 82.61 14.94 82.61 14.66V7.77999C82.61 7.46999 82.58 7.22999 82.52 7.05999C82.46 6.88999 82.35 6.77999 82.2 6.71999C82.05 6.65999 81.85 6.62999 81.61 6.62999H79.34V15.81H81.61C81.85 15.81 82.05 15.77 82.2 15.7Z"/>
<path d="M89.13 3.48999H96.91L98.28 27.97H94.93L93.81 4.74999L94.82 6.58999H91.18L92.22 4.74999L91.14 27.97H87.76L89.13 3.48999ZM90.39 17.71H95.65L95.76 20.81H90.29L90.4 17.71H90.39Z"/>
<path d="M106.71 3.48999H113.33C114.15 3.48999 114.81 3.61999 115.33 3.88999C115.85 4.14999 116.24 4.57999 116.52 5.16999C116.8 5.75999 116.93 6.52999 116.93 7.48999V23.98C116.93 24.94 116.79 25.71 116.52 26.3C116.25 26.89 115.85 27.31 115.33 27.58C114.81 27.84 114.15 27.98 113.33 27.98H106.71V3.48999ZM113.07 24.73C113.23 24.66 113.35 24.53 113.43 24.35C113.51 24.17 113.56 23.91 113.56 23.58V7.87999C113.56 7.53999 113.52 7.28999 113.43 7.10999C113.35 6.92999 113.22 6.79999 113.07 6.72999C112.91 6.65999 112.68 6.61999 112.37 6.61999H110.1V24.84H112.37C112.68 24.84 112.92 24.8 113.07 24.73Z"/>
<path d="M118.98 3.48999H127.69V6.61999H122.36V14.22H126.82V17.21H122.36V24.84H127.69V27.97H118.98V3.48999Z"/>
<path d="M137.59 27.76C137.07 27.5 136.68 27.07 136.4 26.48C136.12 25.89 135.99 25.11 135.99 24.12V7.33999C135.99 6.35999 136.13 5.56999 136.4 4.97999C136.68 4.38999 137.07 3.96999 137.59 3.69999C138.11 3.43999 138.77 3.29999 139.59 3.29999H142.4C143.22 3.29999 143.88 3.42999 144.4 3.69999C144.92 3.96999 145.31 4.38999 145.59 4.97999C145.87 5.56999 146 6.35999 146 7.33999V11.98H142.76V7.58999C142.76 7.29999 142.72 7.06999 142.65 6.90999C142.58 6.73999 142.48 6.61999 142.36 6.54999C142.24 6.47999 142.05 6.43999 141.78 6.43999H140.34C140.08 6.43999 139.88 6.47999 139.76 6.54999C139.64 6.61999 139.54 6.73999 139.47 6.90999C139.4 7.07999 139.36 7.30999 139.36 7.58999V23.86C139.36 24.15 139.4 24.38 139.47 24.54C139.54 24.71 139.64 24.83 139.76 24.9C139.88 24.97 140.07 25.01 140.34 25.01H141.78C142.04 25.01 142.24 24.97 142.36 24.9C142.48 24.83 142.58 24.71 142.65 24.54C142.72 24.37 142.76 24.14 142.76 23.86V19.47H146V24.11C146 25.09 145.87 25.88 145.6 26.47C145.34 27.06 144.94 27.48 144.41 27.75C143.88 28.01 143.22 28.15 142.43 28.15H139.59C138.77 28.15 138.11 28.02 137.59 27.75V27.76Z"/>
<path d="M147.54 24.88H149.92V6.58999H147.54V3.48999H155.6V6.58999H153.22V24.88H155.6V27.98H147.54V24.88Z"/>
<path d="M157.48 3.48999H161.51L166.41 27.25H165.26V3.48999H168.1V27.97H163.96L159.06 4.24999H160.32V27.97H157.48V3.48999Z"/>
<path d="M170.32 3.48999H179.03V6.61999H173.7V14.22H178.16V17.21H173.7V24.84H179.03V27.97H170.32V3.48999Z"/>
<path d="M180.94 3.48999H185.98L188.9 26.57H187.32L190.2 3.48999H195.17V27.97H192.07V4.92999H192.57L189.55 27.79H186.56L183.57 4.92999H184.04V27.97H180.94V3.48999Z"/>
<path d="M198.4 3.48999H206.18L207.55 27.97H204.2L203.08 4.74999L204.09 6.58999H200.45L201.49 4.74999L200.41 27.97H197.03L198.4 3.48999ZM199.66 17.71H204.92L205.03 20.81H199.56L199.67 17.71H199.66Z"/>
<path d="M215.98 3.48999H222.24C223.08 3.48999 223.78 3.62999 224.33 3.89999C224.88 4.17999 225.3 4.59999 225.57 5.15999C225.85 5.71999 225.98 6.43999 225.98 7.29999V15.15C225.98 15.99 225.84 16.69 225.57 17.24C225.29 17.79 224.88 18.21 224.33 18.48C223.78 18.76 223.08 18.89 222.24 18.89H219.36V27.96H215.98V3.48999ZM222.21 15.71C222.38 15.63 222.49 15.5 222.55 15.33C222.61 15.16 222.64 14.93 222.64 14.65V7.76999C222.64 7.45999 222.61 7.21999 222.55 7.04999C222.49 6.87999 222.38 6.76999 222.21 6.70999C222.04 6.64999 221.84 6.61999 221.6 6.61999H219.37V15.84H221.6C221.84 15.84 222.04 15.8 222.21 15.71Z"/>
<path d="M229.44 27.76C228.94 27.5 228.55 27.07 228.27 26.48C227.99 25.89 227.86 25.11 227.86 24.12V7.33999C227.86 6.35999 228 5.56999 228.27 4.97999C228.55 4.38999 228.94 3.96999 229.44 3.69999C229.94 3.42999 230.6 3.29999 231.42 3.29999H234.59C235.41 3.29999 236.07 3.42999 236.59 3.69999C237.11 3.95999 237.5 4.38999 237.76 4.97999C238.02 5.56999 238.16 6.35999 238.16 7.33999V24.12C238.16 25.1 238.03 25.89 237.76 26.48C237.5 27.07 237.11 27.49 236.59 27.76C236.07 28.02 235.41 28.16 234.59 28.16H231.42C230.6 28.16 229.94 28.03 229.44 27.76ZM234.34 24.91C234.48 24.84 234.59 24.72 234.66 24.55C234.73 24.38 234.77 24.15 234.77 23.87V7.59999C234.77 7.30999 234.73 7.07999 234.66 6.91999C234.59 6.75999 234.48 6.62999 234.34 6.55999C234.2 6.48999 234 6.44999 233.76 6.44999H232.25C232.01 6.44999 231.82 6.48999 231.67 6.55999C231.53 6.62999 231.42 6.74999 231.35 6.91999C231.28 7.08999 231.24 7.31999 231.24 7.59999V23.87C231.24 24.16 231.28 24.39 231.35 24.55C231.42 24.72 231.53 24.84 231.67 24.91C231.81 24.98 232.01 25.02 232.25 25.02H233.76C234 25.02 234.19 24.98 234.34 24.91Z"/>
<path d="M240.2 3.48999H246.5C247.32 3.48999 248.01 3.62999 248.57 3.89999C249.13 4.17999 249.55 4.59999 249.81 5.15999C250.07 5.71999 250.21 6.43999 250.21 7.29999V15.22C250.21 15.8 250.16 16.3 250.05 16.73C249.94 17.16 249.78 17.51 249.56 17.77C249.34 18.03 249.07 18.25 248.73 18.42L250.39 27.96H247.01L245.57 18.89H243.59V27.96H240.21V3.48999H240.2ZM246.45 15.7C246.61 15.63 246.71 15.51 246.77 15.34C246.83 15.17 246.86 14.94 246.86 14.66V7.77999C246.86 7.46999 246.83 7.22999 246.77 7.05999C246.71 6.88999 246.6 6.77999 246.45 6.71999C246.3 6.65999 246.1 6.62999 245.86 6.62999H243.59V15.81H245.86C246.1 15.81 246.3 15.77 246.45 15.7Z"/>
<path d="M254.99 6.61999H251.5V3.48999H261.9V6.61999H258.34V27.97H254.99V6.61999Z"/>
<path d="M265.01 27.76C264.49 27.5 264.1 27.08 263.84 26.52C263.58 25.96 263.44 25.23 263.44 24.34V3.48999H266.82V23.87C266.82 24.16 266.86 24.39 266.93 24.55C267 24.72 267.11 24.84 267.25 24.91C267.39 24.98 267.57 25.02 267.79 25.02H269.23C269.47 25.02 269.66 24.98 269.81 24.91C269.95 24.84 270.06 24.72 270.13 24.55C270.2 24.38 270.24 24.15 270.24 23.87V3.48999H273.62V24.33C273.62 25.22 273.48 25.94 273.21 26.51C272.93 27.07 272.53 27.49 272 27.75C271.47 28.01 270.81 28.15 270.02 28.15H267.07C266.21 28.15 265.52 28.02 265 27.75L265.01 27.76Z"/>
<path d="M277.11 27.76C276.59 27.5 276.2 27.07 275.92 26.48C275.64 25.89 275.51 25.11 275.51 24.12V7.31C275.51 6.35 275.65 5.58 275.92 4.99C276.2 4.4 276.59 3.98 277.11 3.71C277.63 3.45 278.29 3.31 279.11 3.31H282.1C282.92 3.31 283.58 3.44 284.1 3.71C284.62 3.97 285.01 4.4 285.29 4.99C285.57 5.58 285.7 6.35 285.7 7.31V11.85H282.46V7.49C282.46 7.25 282.43 7.05 282.37 6.88C282.31 6.71 282.21 6.6 282.06 6.54C281.92 6.48 281.71 6.45 281.45 6.45H279.94C279.68 6.45 279.47 6.49 279.33 6.56C279.19 6.63 279.08 6.75 279.01 6.92C278.94 7.09 278.9 7.3 278.9 7.57V23.91C278.9 24.17 278.94 24.39 279.01 24.56C279.08 24.73 279.2 24.85 279.35 24.92C279.51 24.99 279.7 25.03 279.94 25.03H281.49C281.73 25.03 281.93 24.99 282.08 24.92C282.24 24.85 282.34 24.73 282.39 24.58C282.44 24.42 282.46 24.2 282.46 23.91V18.47H280.52V15.48H285.7V24.12C285.7 25.1 285.57 25.89 285.3 26.48C285.04 27.07 284.64 27.49 284.11 27.76C283.58 28.02 282.92 28.16 282.13 28.16H279.11C278.29 28.16 277.63 28.03 277.11 27.76Z"/>
<path d="M289.09 27.76C288.57 27.5 288.18 27.08 287.92 26.52C287.66 25.96 287.52 25.23 287.52 24.34V3.48999H290.9V23.87C290.9 24.16 290.94 24.39 291.01 24.55C291.08 24.72 291.19 24.84 291.33 24.91C291.47 24.98 291.65 25.02 291.87 25.02H293.31C293.55 25.02 293.74 24.98 293.89 24.91C294.03 24.84 294.14 24.72 294.21 24.55C294.28 24.38 294.32 24.15 294.32 23.87V3.48999H297.7V24.33C297.7 25.22 297.56 25.94 297.29 26.51C297.01 27.07 296.61 27.49 296.08 27.75C295.55 28.01 294.89 28.15 294.1 28.15H291.15C290.29 28.15 289.6 28.02 289.08 27.75L289.09 27.76Z"/>
<path d="M299.76 3.49H308.47V6.62H303.14V14.22H307.6V17.21H303.14V24.84H308.47V27.97H299.76V3.49ZM304.34 0H307.18L305.06 2.77H302.61L304.34 0Z"/>
<path d="M311.69 27.76C311.17 27.5 310.78 27.08 310.52 26.5C310.26 25.92 310.12 25.14 310.12 24.16V19.52H313.4V24.06C313.4 24.3 313.43 24.49 313.49 24.64C313.55 24.78 313.64 24.89 313.76 24.95C313.88 25.01 314.06 25.04 314.3 25.04H315.92C316.25 25.04 316.49 24.97 316.62 24.82C316.75 24.67 316.82 24.42 316.82 24.06V18.3C316.82 18.04 316.78 17.82 316.71 17.65C316.64 17.48 316.53 17.36 316.39 17.27C316.25 17.19 316.04 17.14 315.78 17.14H313.69C312.83 17.14 312.12 17.01 311.58 16.76C311.04 16.51 310.65 16.11 310.41 15.57C310.17 15.03 310.05 14.3 310.05 13.39V7.31C310.05 6.35 310.19 5.58 310.46 4.99C310.74 4.4 311.13 3.98 311.63 3.71C312.13 3.44 312.79 3.31 313.61 3.31H316.49C317.28 3.31 317.94 3.44 318.45 3.71C318.97 3.97 319.36 4.4 319.64 4.99C319.92 5.58 320.05 6.35 320.05 7.31V11.74H316.77V7.46C316.77 7.12 316.7 6.87 316.57 6.7C316.44 6.53 316.2 6.45 315.87 6.45H314.25C314.06 6.45 313.9 6.48 313.76 6.54C313.63 6.6 313.53 6.71 313.45 6.86C313.38 7.02 313.34 7.23 313.34 7.49V12.93C313.34 13.36 313.42 13.66 313.57 13.83C313.73 14 314.01 14.08 314.42 14.08H316.51C317.4 14.08 318.11 14.21 318.63 14.46C319.15 14.71 319.55 15.11 319.8 15.67C320.05 16.22 320.18 16.95 320.18 17.87V24.17C320.18 25.13 320.04 25.9 319.77 26.49C319.49 27.08 319.1 27.5 318.58 27.77C318.06 28.03 317.41 28.17 316.62 28.17H313.67C312.85 28.17 312.19 28.04 311.67 27.77L311.69 27.76Z"/>
<path d="M0.229993 47.53C0.359993 46.94 0.569993 46.41 0.839993 45.93C1.11999 45.45 1.54999 44.96 2.14999 44.45L4.55999 42.4C4.91999 42.06 5.18999 41.74 5.38999 41.43C5.57999 41.12 5.71999 40.78 5.79999 40.4C5.87999 40.03 5.92999 39.59 5.92999 39.09V35.99C5.92999 35.49 5.82999 35.13 5.63999 34.93C5.44999 34.73 5.10999 34.62 4.62999 34.62H0.289993V31.49H5.50999C6.34999 31.49 7.04999 31.64 7.59999 31.94C8.14999 32.24 8.56999 32.69 8.83999 33.29C9.11999 33.89 9.24999 34.62 9.24999 35.49V39.02C9.24999 39.88 9.17999 40.61 9.04999 41.2C8.91999 41.79 8.70999 42.33 8.41999 42.82C8.12999 43.31 7.70999 43.81 7.15999 44.31L4.67999 46.43C4.31999 46.77 4.04999 47.07 3.86999 47.35C3.68999 47.63 3.55999 47.96 3.46999 48.34C3.38999 48.72 3.33999 49.17 3.33999 49.67V52.84H9.20999V55.97H0.0399933V49.78C0.0399933 48.87 0.109993 48.12 0.239993 47.53H0.229993Z"/>
<path d="M10.8 52.84H15.41C15.77 52.84 16.04 52.8 16.22 52.73C16.4 52.66 16.53 52.51 16.62 52.3C16.71 52.09 16.75 51.8 16.75 51.44V46.33C16.75 45.78 16.66 45.41 16.48 45.21C16.3 45.02 15.95 44.92 15.42 44.92H12.47V41.9L16.86 34.12L17.33 34.62H10.85V31.49H19.74V35.09L15.35 42.87L14.49 41.9H16.54C17.38 41.9 18.07 42.04 18.61 42.31C19.15 42.59 19.54 43 19.78 43.55C20.02 44.1 20.14 44.81 20.14 45.67V52.19C20.14 53.03 20 53.74 19.73 54.31C19.45 54.89 19.03 55.31 18.47 55.57C17.91 55.83 17.22 55.97 16.4 55.97H10.82V52.84H10.8Z"/>
<path d="M21.67 42.18H27.29V45.24H21.67V42.18Z"/>
<path d="M28.99 47.53C29.12 46.94 29.33 46.41 29.6 45.93C29.88 45.45 30.31 44.96 30.91 44.45L33.32 42.4C33.68 42.06 33.95 41.74 34.15 41.43C34.34 41.12 34.48 40.78 34.56 40.4C34.64 40.03 34.69 39.59 34.69 39.09V35.99C34.69 35.49 34.59 35.13 34.4 34.93C34.21 34.73 33.87 34.62 33.39 34.62H29.03V31.49H34.25C35.09 31.49 35.79 31.64 36.34 31.94C36.89 32.24 37.31 32.69 37.58 33.29C37.86 33.89 37.99 34.62 37.99 35.49V39.02C37.99 39.88 37.92 40.61 37.79 41.2C37.66 41.79 37.45 42.33 37.16 42.82C36.87 43.31 36.45 43.81 35.9 44.31L33.42 46.43C33.06 46.77 32.79 47.07 32.61 47.35C32.43 47.63 32.3 47.96 32.21 48.34C32.13 48.72 32.08 49.17 32.08 49.67V52.84H37.95V55.97H28.77V49.78C28.77 48.87 28.84 48.12 28.97 47.53H28.99Z"/>
<path d="M39.84 52.84H44.16C44.5 52.84 44.76 52.8 44.95 52.73C45.14 52.66 45.28 52.52 45.36 52.32C45.44 52.12 45.49 51.82 45.49 51.44V45.82C45.49 45.46 45.45 45.17 45.36 44.96C45.28 44.74 45.14 44.6 44.95 44.53C44.76 44.46 44.49 44.42 44.16 44.42H39.8V31.5H48.37V34.63H43.01V41.33H45.28C46.07 41.33 46.73 41.47 47.26 41.74C47.79 42.02 48.18 42.43 48.45 42.98C48.71 43.53 48.85 44.23 48.85 45.07V52.2C48.85 53.06 48.72 53.78 48.45 54.34C48.19 54.9 47.77 55.32 47.21 55.58C46.65 55.84 45.96 55.98 45.14 55.98H39.85V52.85L39.84 52.84Z"/>
<path d="M57.72 31.49H65.5L66.87 55.97H63.52L62.4 32.75L63.41 34.59H59.77L60.81 32.75L59.73 55.97H56.35L57.72 31.49ZM58.98 45.71H64.24L64.35 48.81H58.88L58.99 45.71H58.98Z"/>
<path d="M70.12 55.76C69.6 55.5 69.21 55.07 68.93 54.48C68.65 53.89 68.52 53.11 68.52 52.12V35.31C68.52 34.35 68.66 33.58 68.93 32.99C69.21 32.4 69.6 31.98 70.12 31.71C70.64 31.45 71.3 31.31 72.12 31.31H75.11C75.93 31.31 76.59 31.44 77.11 31.71C77.63 31.98 78.02 32.4 78.3 32.99C78.58 33.58 78.71 34.35 78.71 35.31V39.85H75.47V35.49C75.47 35.25 75.44 35.05 75.38 34.88C75.32 34.71 75.22 34.6 75.07 34.54C74.93 34.48 74.72 34.45 74.46 34.45H72.95C72.69 34.45 72.48 34.49 72.34 34.56C72.2 34.63 72.09 34.75 72.02 34.92C71.95 35.09 71.91 35.3 71.91 35.57V51.91C71.91 52.17 71.95 52.39 72.02 52.56C72.09 52.73 72.21 52.85 72.36 52.92C72.52 52.99 72.71 53.03 72.95 53.03H74.5C74.74 53.03 74.94 52.99 75.09 52.92C75.25 52.85 75.35 52.73 75.4 52.58C75.45 52.42 75.47 52.2 75.47 51.91V46.47H73.53V43.48H78.71V52.12C78.71 53.1 78.58 53.89 78.31 54.48C78.04 55.07 77.65 55.49 77.12 55.76C76.59 56.02 75.93 56.16 75.14 56.16H72.12C71.3 56.16 70.64 56.03 70.12 55.76Z"/>
<path d="M82.12 55.76C81.62 55.5 81.23 55.07 80.95 54.48C80.67 53.89 80.54 53.11 80.54 52.12V35.34C80.54 34.36 80.68 33.57 80.95 32.98C81.23 32.39 81.62 31.97 82.12 31.7C82.62 31.43 83.28 31.3 84.1 31.3H87.27C88.09 31.3 88.75 31.43 89.27 31.7C89.79 31.96 90.18 32.39 90.44 32.98C90.7 33.57 90.84 34.36 90.84 35.34V52.12C90.84 53.1 90.71 53.89 90.44 54.48C90.18 55.07 89.79 55.49 89.27 55.76C88.75 56.02 88.09 56.16 87.27 56.16H84.1C83.28 56.16 82.62 56.03 82.12 55.76ZM87.01 52.91C87.15 52.84 87.26 52.72 87.33 52.55C87.4 52.38 87.44 52.15 87.44 51.87V35.6C87.44 35.31 87.4 35.08 87.33 34.92C87.26 34.75 87.15 34.63 87.01 34.56C86.87 34.49 86.67 34.45 86.43 34.45H84.92C84.68 34.45 84.49 34.49 84.34 34.56C84.19 34.63 84.09 34.75 84.02 34.92C83.95 35.09 83.91 35.32 83.91 35.6V51.87C83.91 52.16 83.95 52.39 84.02 52.55C84.09 52.72 84.2 52.84 84.34 52.91C84.48 52.98 84.68 53.02 84.92 53.02H86.43C86.67 53.02 86.86 52.98 87.01 52.91Z"/>
<path d="M94.37 55.76C93.85 55.5 93.46 55.08 93.2 54.5C92.94 53.92 92.8 53.14 92.8 52.16V47.52H96.08V52.06C96.08 52.3 96.11 52.49 96.17 52.64C96.23 52.78 96.32 52.89 96.44 52.95C96.56 53.01 96.74 53.04 96.98 53.04H98.6C98.94 53.04 99.17 52.97 99.3 52.82C99.43 52.67 99.5 52.42 99.5 52.06V46.3C99.5 46.04 99.46 45.82 99.39 45.65C99.32 45.48 99.21 45.36 99.07 45.27C98.93 45.18 98.72 45.14 98.46 45.14H96.37C95.51 45.14 94.8 45.01 94.26 44.76C93.72 44.51 93.33 44.11 93.09 43.57C92.85 43.03 92.73 42.3 92.73 41.39V35.31C92.73 34.35 92.87 33.58 93.14 32.99C93.42 32.4 93.81 31.98 94.31 31.71C94.81 31.45 95.47 31.31 96.29 31.31H99.17C99.96 31.31 100.62 31.44 101.13 31.71C101.64 31.98 102.04 32.4 102.32 32.99C102.6 33.58 102.73 34.35 102.73 35.31V39.74H99.45V35.46C99.45 35.12 99.38 34.87 99.25 34.7C99.12 34.53 98.88 34.45 98.55 34.45H96.93C96.74 34.45 96.58 34.48 96.44 34.54C96.31 34.6 96.21 34.71 96.13 34.86C96.06 35.02 96.02 35.23 96.02 35.49V40.93C96.02 41.36 96.1 41.66 96.25 41.83C96.41 42 96.69 42.08 97.1 42.08H99.19C100.08 42.08 100.79 42.21 101.31 42.46C101.83 42.71 102.23 43.11 102.48 43.67C102.73 44.22 102.86 44.95 102.86 45.87V52.17C102.86 53.13 102.72 53.9 102.45 54.49C102.17 55.08 101.78 55.5 101.26 55.77C100.74 56.03 100.09 56.17 99.3 56.17H96.35C95.53 56.17 94.87 56.04 94.35 55.77L94.37 55.76Z"/>
<path d="M107.82 34.62H104.33V31.49H114.73V34.62H111.17V55.97H107.82V34.62Z"/>
<path d="M117.68 55.76C117.18 55.5 116.79 55.07 116.51 54.48C116.23 53.89 116.1 53.11 116.1 52.12V35.34C116.1 34.36 116.24 33.57 116.51 32.98C116.79 32.39 117.18 31.97 117.68 31.7C118.18 31.43 118.84 31.3 119.66 31.3H122.83C123.65 31.3 124.31 31.43 124.83 31.7C125.35 31.96 125.74 32.39 126 32.98C126.26 33.57 126.4 34.36 126.4 35.34V52.12C126.4 53.1 126.27 53.89 126 54.48C125.74 55.07 125.35 55.49 124.83 55.76C124.31 56.02 123.65 56.16 122.83 56.16H119.66C118.84 56.16 118.18 56.03 117.68 55.76ZM122.57 52.91C122.71 52.84 122.82 52.72 122.89 52.55C122.96 52.38 123 52.15 123 51.87V35.6C123 35.31 122.96 35.08 122.89 34.92C122.82 34.75 122.71 34.63 122.57 34.56C122.43 34.49 122.23 34.45 121.99 34.45H120.48C120.24 34.45 120.05 34.49 119.9 34.56C119.75 34.63 119.65 34.75 119.58 34.92C119.51 35.09 119.47 35.32 119.47 35.6V51.87C119.47 52.16 119.51 52.39 119.58 52.55C119.65 52.72 119.76 52.84 119.9 52.91C120.04 52.98 120.24 53.02 120.48 53.02H121.99C122.23 53.02 122.42 52.98 122.57 52.91Z"/>
<path d="M177.95 31.49H184.25C185.07 31.49 185.76 31.63 186.32 31.9C186.88 32.18 187.3 32.6 187.56 33.16C187.82 33.72 187.96 34.44 187.96 35.3V43.22C187.96 43.8 187.91 44.3 187.8 44.73C187.69 45.16 187.53 45.51 187.31 45.77C187.09 46.03 186.82 46.25 186.48 46.42L188.14 55.96H184.76L183.32 46.89H181.34V55.96H177.96V31.48L177.95 31.49ZM184.19 43.7C184.35 43.63 184.45 43.51 184.51 43.34C184.57 43.17 184.6 42.94 184.6 42.66V35.78C184.6 35.47 184.57 35.23 184.51 35.06C184.45 34.89 184.34 34.78 184.19 34.72C184.04 34.66 183.84 34.63 183.6 34.63H181.33V43.81H183.6C183.84 43.81 184.04 43.77 184.19 43.7Z"/>
<path d="M189.79 52.88H192.17V34.59H189.79V31.49H197.85V34.59H195.47V52.88H197.85V55.98H189.79V52.88Z"/>
<path d="M199.72 31.49H206.16C206.98 31.49 207.65 31.62 208.18 31.87C208.71 32.12 209.1 32.54 209.37 33.13C209.63 33.72 209.77 34.49 209.77 35.45V40.63C209.77 41.47 209.64 42.14 209.39 42.65C209.14 43.16 208.72 43.55 208.15 43.84V43.23C208.77 43.47 209.23 43.84 209.52 44.35C209.81 44.86 209.95 45.56 209.95 46.47V52.01C209.95 52.97 209.82 53.74 209.55 54.31C209.29 54.89 208.9 55.31 208.38 55.57C207.86 55.83 207.2 55.97 206.38 55.97H199.72V31.49ZM206.16 41.86C206.33 41.67 206.41 41.36 206.41 40.92V35.81C206.41 35.5 206.37 35.26 206.28 35.09C206.2 34.92 206.08 34.8 205.92 34.73C205.76 34.66 205.55 34.62 205.29 34.62H203.09V42.14H205.29C205.7 42.14 205.99 42.04 206.15 41.85L206.16 41.86ZM206.11 52.73C206.29 52.66 206.41 52.54 206.47 52.37C206.53 52.2 206.56 51.96 206.56 51.65V46.29C206.56 45.88 206.48 45.58 206.33 45.39C206.17 45.2 205.89 45.1 205.48 45.1H203.1V52.84H205.48C205.72 52.84 205.93 52.8 206.11 52.73Z"/>
<path d="M211.96 31.49H220.67V34.62H215.34V42.22H219.8V45.21H215.34V52.84H220.67V55.97H211.96V31.49Z"/>
<path d="M222.21 52.88H224.59V34.59H222.21V31.49H230.27V34.59H227.89V52.88H230.27V55.98H222.21V52.88Z"/>
<path d="M232.15 31.49H238.45C239.27 31.49 239.96 31.63 240.52 31.9C241.08 32.18 241.5 32.6 241.76 33.16C242.02 33.72 242.16 34.44 242.16 35.3V43.22C242.16 43.8 242.11 44.3 242 44.73C241.89 45.16 241.73 45.51 241.51 45.77C241.29 46.03 241.02 46.25 240.68 46.42L242.34 55.96H238.96L237.52 46.89H235.54V55.96H232.16V31.48L232.15 31.49ZM238.39 43.7C238.55 43.63 238.65 43.51 238.71 43.34C238.77 43.17 238.8 42.94 238.8 42.66V35.78C238.8 35.47 238.77 35.23 238.71 35.06C238.65 34.89 238.54 34.78 238.39 34.72C238.24 34.66 238.04 34.63 237.8 34.63H235.53V43.81H237.8C238.04 43.81 238.24 43.77 238.39 43.7Z"/>
<path d="M245.32 31.49H253.1L254.47 55.97H251.12L250 32.75L251.01 34.59H247.37L248.41 32.75L247.33 55.97H243.95L245.32 31.49ZM246.58 45.71H251.84L251.95 48.81H246.48L246.59 45.71H246.58Z"/>
<path d="M263.83 55.76C263.31 55.5 262.92 55.08 262.66 54.5C262.4 53.92 262.26 53.14 262.26 52.16V47.52H265.54V52.06C265.54 52.3 265.57 52.49 265.63 52.64C265.69 52.78 265.78 52.89 265.9 52.95C266.02 53.01 266.2 53.04 266.44 53.04H268.06C268.39 53.04 268.63 52.97 268.76 52.82C268.89 52.67 268.96 52.42 268.96 52.06V46.3C268.96 46.04 268.92 45.82 268.85 45.65C268.78 45.48 268.67 45.36 268.53 45.27C268.39 45.19 268.18 45.14 267.92 45.14H265.83C264.97 45.14 264.26 45.01 263.72 44.76C263.18 44.51 262.79 44.11 262.55 43.57C262.31 43.03 262.19 42.3 262.19 41.39V35.31C262.19 34.35 262.33 33.58 262.6 32.99C262.88 32.4 263.27 31.98 263.77 31.71C264.27 31.44 264.93 31.31 265.75 31.31H268.63C269.42 31.31 270.08 31.44 270.59 31.71C271.11 31.97 271.5 32.4 271.78 32.99C272.06 33.58 272.19 34.35 272.19 35.31V39.74H268.91V35.46C268.91 35.12 268.84 34.87 268.71 34.7C268.58 34.53 268.34 34.45 268.01 34.45H266.39C266.2 34.45 266.04 34.48 265.9 34.54C265.77 34.6 265.67 34.71 265.59 34.86C265.52 35.02 265.48 35.23 265.48 35.49V40.93C265.48 41.36 265.56 41.66 265.71 41.83C265.87 42 266.15 42.08 266.56 42.08H268.65C269.54 42.08 270.25 42.21 270.77 42.46C271.29 42.71 271.69 43.11 271.94 43.67C272.19 44.22 272.32 44.95 272.32 45.87V52.17C272.32 53.13 272.18 53.9 271.91 54.49C271.63 55.08 271.24 55.5 270.72 55.77C270.2 56.03 269.55 56.17 268.76 56.17H265.81C264.99 56.17 264.33 56.04 263.81 55.77L263.83 55.76Z"/>
<path d="M275.36 31.49H283.14L284.51 55.97H281.16L280.04 32.75L281.05 34.59H277.41L278.45 32.75L277.37 55.97H273.99L275.36 31.49ZM276.62 45.71H281.88L281.99 48.81H276.52L276.63 45.71H276.62Z"/>
<path d="M287.76 55.76C287.24 55.5 286.85 55.07 286.57 54.48C286.29 53.89 286.16 53.11 286.16 52.12V35.34C286.16 34.36 286.3 33.57 286.57 32.98C286.85 32.39 287.24 31.97 287.76 31.7C288.28 31.44 288.94 31.3 289.76 31.3H292.57C293.39 31.3 294.05 31.43 294.57 31.7C295.09 31.96 295.48 32.39 295.76 32.98C296.04 33.57 296.17 34.36 296.17 35.34V39.98H292.93V35.59C292.93 35.3 292.89 35.07 292.82 34.91C292.75 34.74 292.65 34.62 292.53 34.55C292.41 34.48 292.22 34.44 291.95 34.44H290.51C290.25 34.44 290.05 34.48 289.93 34.55C289.81 34.62 289.71 34.74 289.64 34.91C289.57 35.08 289.53 35.31 289.53 35.59V51.86C289.53 52.15 289.57 52.38 289.64 52.54C289.71 52.71 289.81 52.83 289.93 52.9C290.05 52.97 290.24 53.01 290.51 53.01H291.95C292.21 53.01 292.41 52.97 292.53 52.9C292.65 52.83 292.75 52.71 292.82 52.54C292.89 52.37 292.93 52.14 292.93 51.86V47.47H296.17V52.11C296.17 53.09 296.04 53.88 295.77 54.47C295.51 55.06 295.11 55.48 294.58 55.75C294.05 56.01 293.39 56.15 292.6 56.15H289.76C288.94 56.15 288.28 56.02 287.76 55.75V55.76Z"/>
<path d="M298.07 31.49H304.37C305.19 31.49 305.88 31.63 306.44 31.9C307 32.18 307.42 32.6 307.68 33.16C307.94 33.72 308.08 34.44 308.08 35.3V43.22C308.08 43.8 308.03 44.3 307.92 44.73C307.81 45.16 307.65 45.51 307.43 45.77C307.21 46.03 306.94 46.25 306.6 46.42L308.26 55.96H304.88L303.44 46.89H301.46V55.96H298.08V31.48L298.07 31.49ZM304.32 43.7C304.48 43.63 304.58 43.51 304.64 43.34C304.7 43.17 304.73 42.94 304.73 42.66V35.78C304.73 35.47 304.7 35.23 304.64 35.06C304.58 34.89 304.47 34.78 304.32 34.72C304.17 34.66 303.97 34.63 303.73 34.63H301.46V43.81H303.73C303.97 43.81 304.17 43.77 304.32 43.7Z"/>
<path d="M311.25 31.49H319.03L320.4 55.97H317.05L315.93 32.75L316.94 34.59H313.3L314.34 32.75L313.26 55.97H309.88L311.25 31.49ZM312.51 45.71H317.77L317.88 48.81H312.41L312.52 45.71H312.51Z"/>
</svg>
